<svg xmlns="http://www.w3.org/2000/svg" viewBox="0 0 452 406"><path fill="#884C27" d="M189 1c1.4412 1.3884 1.4412 1.3884 2.7773 3.1836l1.536 2.0342 1.6242 2.2197 1.716 2.294c4.6224 6.2056 9.144 12.4863 13.6517 18.7756C215.0542 36.1227 219.9812 42.5876 225 49c3.4387-1.4265 5.0835-3.0635 7.2422-6.0703l1.793-2.4688 1.8398-2.5859c1.2054-1.6695 2.4112-3.3387 3.6172-5.0078l1.7773-2.4776c1.6313-2.2526 3.2938-4.477 4.9727-6.6943 2.6822-3.5551 5.092-7.238 7.461-11.0078L255 11h2l.6875-2.125C259.3738 5.1812 260.9871 2.7509 264 0c7.3674.2502 14.4326 2.612 21.5 4.5625 2.6773.7293 5.356 1.4533 8.0352 2.1758l2.089.564c9.0347 2.4283 18.1174 4.6659 27.2 6.907 7.5223 1.8605 15.0184 3.7985 22.5022 5.8083 5.8816 1.5729 11.7774 3.09 17.6736 4.6074l3.94 1.0146c2.8288.7284 5.6577 1.4561 8.4868 2.1836 4.0272 1.0359 8.0538 2.0744 12.0802 3.1133 3.4446.8883 6.8897 1.775 10.3348 2.6613 1.6593.4272 3.3185.855 4.9775 1.2834 9.3065 2.4023 18.6179 4.7438 27.9965 6.8506C435.8929 42.8929 435.8929 42.8929 437 44c.1393 6.4062-2.846 9.9241-6.6445 14.879-2.4703 3.273-4.7351 6.63-6.9805 10.0585-2.9327 4.4622-5.9277 8.8687-9.0195 13.2227l-1.9019 2.6818a978.3023 978.3023 0 0 1-3.7197 5.193c-.571.803-1.1418 1.6062-1.73 2.4338l-1.5369 2.1386C403.628 97.607 402.3618 100.7602 401 104l1.9362 1.9025a5919.8646 5919.8646 0 0 1 18.0125 17.7872c3.0807 3.0546 6.1659 6.1043 9.2617 9.1436a1799.0012 1799.0012 0 0 1 8.9283 8.831 611.064 611.064 0 0 0 3.4163 3.362c1.5996 1.5634 3.183 3.1417 4.7634 4.7244l2.7454 2.7119C452 155 452 155 452.2926 157.828L452 160c-8.0308 3.3426-16.2051 6.199-24.4375 9-2.499.8533-4.9977 1.7074-7.496 2.5625l-3.6168 1.2344c-4.0849 1.4246-8.13 2.9432-12.1648 4.5039C402 178 402 178 398 178c-1.0843 3.253-1.1274 5.6162-1.1313 9.0395l-.0121 3.8276c.0004 1.4026.001 2.8052.0016 4.2079-.003 1.475-.0066 2.9502-.0106 4.4253-.0079 3.179-.013 6.358-.0163 9.537-.0059 5.0306-.0224 10.0611-.0413 15.0917l-.019 5.1683-.0096 2.6146c-.042 11.7117-.075 23.4234-.0873 35.1352a6227.8117 6227.8117 0 0 1-.0694 23.6982c-.0197 4.1787-.0322 8.3572-.0271 12.536.0046 3.9342-.0093 7.868-.037 11.8021a439.5054 439.5054 0 0 0 .0001 4.3196c.036 7.9408-.1293 13.8585-4.5407 20.597-3.5296 3.5412-7.533 5.2748-12.1445 7.0234l-2.0832.8142c-2.1918.8541-4.3881 1.6958-6.5848 2.5374-1.432.5565-2.8636 1.1138-4.295 1.6719-7.7418 3.0102-15.512 5.9421-23.2935 8.8485-5.5393 2.0727-11.0467 4.2169-16.5365 6.4171l-2.6465 1.0488-2.5058 1.002-2.2146.884c-1.6924.6297-1.6924.6297-2.6956 1.7527-1.6662.0406-3.3339.0427-5 0l-1 2c-2.4699 1.0403-4.9149 1.9814-7.4375 2.875-8.9182 3.2198-17.6885 6.756-26.4526 10.3726C267.1382 391.3584 257.1236 395.2797 247 399l-2.1143.8291C239.3125 402 239.3125 402 236 402l-1 2c-6.953 3.1454-12.8421 1.2592-19.7188-1.293l-1.8672-.6872c-1.974-.7288-3.944-1.4677-5.914-2.2073a7370.387 7370.387 0 0 0-4.0637-1.5073c-8.0178-2.9805-16.0032-6.0337-23.9168-9.2818-3.8314-1.5563-7.0996-2.2476-11.207-2.5859l-3.0117-.254c-.7593-.0605-1.5185-.121-2.3008-.1835l-.2605-1.8909c-.5292-2.2223-.5292-2.2223-2.4067-3.1264l-2.1648-.7288-2.4012-.84-2.5793-.8514a2484.616 2484.616 0 0 1-5.2578-1.836l-2.583-.8935c-2.8927-1.0268-5.714-2.1846-8.5342-3.3955C129.6337 369.3823 122.315 366.7071 115 364c-8.5213-3.1535-17.0008-6.3327-25.3516-9.9219-2.847-1.159-5.7297-2.1155-8.6484-3.0781-2.464-.9458-4.9049-1.9383-7.3477-2.9375a150.348 150.348 0 0 0-5.2734-2c-6.1987-2.2644-12.1601-4.9786-15.439-11.0137-1.3817-4.4818-1.2999-8.8232-1.354-13.4902l-.059-3.2576c-.0614-3.621-.1073-7.2422-.1519-10.8635l-.1128-7.6973c-.317-22.9698-.367-45.9423-.3847-68.914-.0025-2.8189-.0065-5.6377-.0106-8.4566a5768.149 5768.149 0 0 1-.0013-13.4648c.001-1.6606.0005-3.3213-.0017-4.982C50.854 195.2362 50.9698 186.6404 52 178l-2.1081-.5456c-7.9112-2.0647-15.6083-4.6497-23.3294-7.3294l-3.7363-1.2773C15.0895 166.1747 7.5132 163.2484 0 160c.5146-4.0178 1.4338-5.9177 4.3516-8.707l2.082-2.0293 2.1914-2.0762c4.818-4.6362 9.4729-9.2934 13.8147-14.3835 2.3916-2.765 4.8825-5.313 7.5603-7.804h2l.7617-1.754c1.3942-2.5288 2.9762-4.1803 5.0508-6.1835l2.1563-2.1016L42 113l2.8125-2.8125L50 105c-1.5355-4.4146-3.8883-8.1-6.5-11.9375l-1.3508-2.0056c-2.8809-4.2546-5.8365-8.4483-8.8367-12.6194a2958.1052 2958.1052 0 0 1-3.7773-5.2852c-1.149-1.6108-2.3004-3.22-3.4532-4.828-2.1058-2.9514-4.1891-5.9176-6.2695-8.8868l-2.075-2.887-1.9055-2.742-1.7273-2.4435C12.7353 48.4333 13.2567 47.0727 14 44c8.6118-2.737 17.2494-5.1633 26.0234-7.3203l3.6604-.9097c2.5699-.6385 5.14-1.2757 7.7108-1.9108 6.0751-1.5012 12.1473-3.0145 18.2197-4.5266 2.0216-.5033 4.0432-1.0062 6.0648-1.509 10.8253-2.694 21.641-5.4238 32.4459-8.1986l2.3239-.5963c11.9557-3.0715 23.8875-6.231 35.8146-9.4115C157.7973 6.5442 169.37 3.6857 181 1l1.9868-.6172C185.3955-.0752 186.7231.0986 189 1Z"/><path fill="#E4A66E" d="M223 166h1v233c-10.03-2.2289-10.03-2.2289-14.375-4.1875-5.5577-2.4108-11.1873-4.5456-16.875-6.625l-2.603-.9519A4038.7462 4038.7462 0 0 0 184 385c.3046 1.9697.3046 1.9697 1 4 2.4903 1.2966 2.4903 1.2966 5 2-3.9558 1.3186-5.2252.2674-9-1.375-6.0718-2.46-11.4753-3.4812-18-3.625l-.2605-1.8909c-.5292-2.2223-.5292-2.2223-2.4067-3.1264l-2.1648-.7288-2.4012-.84-2.5793-.8514a2484.616 2484.616 0 0 1-5.2578-1.836l-2.583-.8935c-2.8927-1.0268-5.714-2.1846-8.5342-3.3955C129.6337 369.3823 122.315 366.7071 115 364c-8.5213-3.1535-17.0008-6.3327-25.3516-9.9219-1.9166-.7802-3.8684-1.4758-5.8359-2.1172-2.7867-.9521-4.58-2.0718-6.8125-3.9609l7-1c-3.0507-2.0338-5.8225-3.1582-9.25-4.4375l-3.5117-1.3438c-1.828-.688-3.661-1.3642-5.5078-2C61.0783 337.516 59.383 335.2665 57 331c-.4922-3.0965-.4922-3.0965-.481-6.454l-.0167-3.8752c.0142-1.4044.0287-2.8089.0436-4.2133.0011-1.4885.0005-2.977-.0018-4.4656-.0011-4.0307.0224-8.061.0503-12.0916.025-4.216.0274-8.432.0321-12.6481.0124-7.9792.0453-15.958.0854-23.937.0448-9.0859.0667-18.1717.0868-27.2575.0418-18.686.1121-37.3719.2013-56.0577 1.5835.3063 3.1665.6156 4.7493.926l2.6714.521c3.5338.7577 6.8444 1.823 10.2668 2.9905l3.6992 1.246c2.304.8395 4.5864 1.7423 6.8328 2.7252 3.892 1.6795 7.8587 3.041 11.882 4.3686l2.298.7656c1.598.5316 3.1964 1.0618 4.7953 1.5906 2.4037.7952 4.8057 1.5951 7.2075 2.3958 7.9337 2.638 15.8755 5.2148 23.8873 7.6074 3.5422 1.1282 6.9532 2.509 10.3862 3.9297 2.9521 1.1858 5.9484 2.1725 8.9765 3.1445 2.65.8907 5.2403 1.906 7.8477 2.9141A712.0084 712.0084 0 0 0 168 217l2.2773.9336c2.7153.7905 3.998.9151 6.7227.0664 4.573-3.8695 8.2756-8.3269 12-13l2.3672-2.918c1.289-1.6076 2.564-3.227 3.8164-4.8632 2.1166-2.5855 4.438-4.8729 6.8164-7.2188 6.0047-6.3825 11.7008-12.9562 17.1875-19.7852C221 168 221 168 223 166Z"/><path fill="#E2A369" d="M229 166c7.1674 5.9728 12.6526 12.3877 18.2266 19.8242 2.0992 2.5755 4.4084 4.8421 6.7734 7.1758 1.9603 2.0415 3.8894 4.111 5.8125 6.1875l1.5815 1.706c3.9142 4.2624 7.5666 8.6794 11.0826 13.2784 1.4072 1.937 1.4072 1.937 3.5234 2.8281v2c11.353-3.2193 22.4246-6.8066 33.4163-11.1052 5.8141-2.2606 11.6453-4.24 17.6189-6.0296 6.1577-1.8673 12.1629-4.1007 18.189-6.352 5.0544-1.8863 10.1244-3.6708 15.2563-5.3374 3.098-1.035 6.1782-2.1072 9.2578-3.1953l3.1435-1.1077c2.097-.7403 4.1928-1.4842 6.2871-2.232l2.9288-1.0314 2.6408-.9385C387 181 387 181 390 181c.07 19.732.123 39.4639.1554 59.196.0155 9.1618.0366 18.3236.071 27.4854.0298 7.985.0492 15.97.0559 23.9551.0039 4.2285.013 8.4567.0349 12.685.0204 3.98.0266 7.9599.0221 11.94a599.351 599.351 0 0 0 .0183 4.3814c.015 1.995.0096 3.9902.0032 5.9853l.0083 3.3827c-.419 3.393-1.3405 5.2605-3.3691 7.9891-2.375 1.3633-2.375 1.3633-5 2.3125l-2.625.9883C377 342 377 342 374 342l-1 3-3 2 4 2c-18.845 7.6136-18.845 7.6136-28 11-6.347 2.3519-12.649 4.8087-18.9375 7.3125l-2.6777 1.0605-2.4746.9903-2.2146.884c-1.6924.6297-1.6924.6297-2.6956 1.7527-1.6662.0406-3.3339.0427-5 0l-1 2c-2.4699 1.0403-4.9149 1.9814-7.4375 2.875-8.9186 3.22-17.6899 6.7555-26.4539 10.3735-7.7393 3.1892-15.4877 6.3595-23.2961 9.3765l-1.977.7866c-4.4867 1.7047-4.4867 1.7047-7.8355.5884h2l-1-3 1-2-2.4492 1.0586-3.2383 1.3789c-1.0557.4525-2.1115.905-3.1992 1.371C234 398 234 398 229 399V166Z"/><path fill="#DC985E" d="M223 166h1v233c-10.03-2.2289-10.03-2.2289-14.375-4.1875-5.5577-2.4108-11.1873-4.5456-16.875-6.625l-2.603-.9519A4038.7462 4038.7462 0 0 0 184 385c.3046 1.9697.3046 1.9697 1 4 2.4903 1.2966 2.4903 1.2966 5 2-3.9558 1.3186-5.2252.2674-9-1.375-6.0718-2.46-11.4753-3.4812-18-3.625l-.2605-1.8909c-.5292-2.2223-.5292-2.2223-2.4067-3.1264l-2.1648-.7288-2.4012-.84-2.5793-.8514a2484.616 2484.616 0 0 1-5.2578-1.836l-2.583-.8935c-2.8927-1.0268-5.714-2.1846-8.5342-3.3955C129.6337 369.3823 122.315 366.7071 115 364c-8.5213-3.1535-17.0008-6.3327-25.3516-9.9219-1.9166-.7802-3.8684-1.4758-5.8359-2.1172-2.7867-.9521-4.58-2.0718-6.8125-3.9609l7-1c-3.0507-2.0338-5.8225-3.1582-9.25-4.4375l-3.5117-1.3438c-1.828-.688-3.661-1.3642-5.5078-2C61.0783 337.516 59.383 335.2665 57 331c-.4922-3.0965-.4922-3.0965-.481-6.454l-.0167-3.8752c.0142-1.4044.0287-2.8089.0436-4.2133.0011-1.4885.0005-2.977-.0018-4.4656-.0011-4.0307.0224-8.061.0503-12.0916.025-4.216.0274-8.432.0321-12.6481.0124-7.9792.0453-15.958.0854-23.937.0448-9.0859.0667-18.1717.0868-27.2575.0418-18.686.1121-37.3719.2013-56.0577 1.5835.3063 3.1665.6156 4.7493.926l2.6714.521c3.5338.7577 6.8444 1.823 10.2668 2.9905l3.6992 1.246c2.304.8395 4.5864 1.7423 6.8328 2.7252 3.892 1.6795 7.8587 3.041 11.882 4.3686l2.298.7656c1.598.5316 3.1964 1.0618 4.7953 1.5906 2.4037.7952 4.8057 1.5951 7.2075 2.3958 7.9337 2.638 15.8755 5.2148 23.8873 7.6074 3.5422 1.1282 6.9532 2.509 10.3862 3.9297 2.9521 1.1858 5.9484 2.1725 8.9765 3.1445 2.65.8907 5.2403 1.906 7.8477 2.9141A712.0084 712.0084 0 0 0 168 217l2.2773.9336c2.7153.7905 3.998.9151 6.7227.0664 4.573-3.8695 8.2756-8.3269 12-13l2.3672-2.918c1.289-1.6076 2.564-3.227 3.8164-4.8632 2.1166-2.5855 4.438-4.8729 6.8164-7.2188 6.0047-6.3825 11.7008-12.9562 17.1875-19.7852C221 168 221 168 223 166Zm-4 15-1 6h-2c-.459.9036-.9178 1.8073-1.3906 2.7383a4933.7466 4933.7466 0 0 1-1.8594 3.5742l-1.8281 3.5508C209 200 209 200 207.0156 201.4805c-2.3916 1.803-3.475 3.85-4.8774 6.4594-1.2814 2.3193-2.6835 4.532-4.1187 6.7593l-1.5879 2.4746a1741.68 1741.68 0 0 1-3.2734 5.0625l-1.5762 2.463-1.4304 2.2135c-1.1278 2.044-1.7055 3.8063-2.1516 6.0872h-2v2c-4.7525-.6142-8.9473-1.9918-13.375-3.75-5.5705-2.158-11.1541-4.0933-16.875-5.8125-4.6492-1.4051-9.163-2.9452-13.625-4.875-5.4285-2.3472-10.936-4.2137-16.5535-6.0417-8.0574-2.6396-16.0185-5.5363-23.9804-8.4495C96.4288 204.192 91.2966 202.4698 86 201a424.1152 424.1152 0 0 1-6.9375-2.4375l-3.6836-1.3242c-2.6396-.9674-5.2611-1.9644-7.8789-2.9883-3.8437-1.4891-3.8437-1.4891-9.5-2.25v68l14 2c12.8932 2.814 24.9691 7.7875 36 15h2v2c2.1746 1.821 2.1746 1.821 4.875 3.625l2.7422 1.914c2.2011 1.6352 2.2011 1.6352 4.3828 1.461l.746 1.711c1.468 2.6798 3.2476 4.6686 5.3165 6.914 3.8403 4.1806 3.8403 4.1806 4.9375 6.375h2l.75 1.75c1.433 2.5794 3.0342 4.3112 5.25 6.25h2l.6602 2.168c1.6445 3.476 3.9408 5.6476 6.7773 8.1445l1.6123 1.4458c10.0288 8.8561 21.0498 16.1081 33.1377 21.8042l2.511 1.1858C194.337 346.819 200.91 349.164 208 351l2.3242.6758C214.8685 352.9482 218.0712 353 223 353V181h-4Z"/><path fill="#E3A46D" d="M59.5625 106.75c3.5667.7509 6.9285 2.1684 10.3289 3.4604 3.3023 1.2366 6.6383 2.363 9.9836 3.4771l2.3022.768c6.785 2.242 13.6127 4.3362 20.4478 6.4195 9.5981 2.9258 19.133 6.001 28.642 9.2036 6.3085 2.122 12.6336 4.1757 18.983 6.1714 6.787 2.1337 13.5463 4.3403 20.289 6.6094l2.2944.7718 2.3268.7829C190.6812 149.636 206.2134 154.6259 222 159c-1.4301 4.5219-3.9607 7.4603-7.1875 10.8125a3433.8141 3433.8141 0 0 0-3.004 3.1992l-1.4691 1.5562c-1.6982 1.8157-3.3374 3.6775-4.9644 5.5571-2.5419 2.9353-5.1358 5.8164-7.75 8.6875-3.9564 4.3796-7.6945 8.9048-11.4063 13.4922-3.293 4.0003-6.74 7.8564-10.2187 11.6953-12.1795-2.4772-23.9112-6.5768-35.6875-10.5l-3.4707-1.1445c-5.9824-1.9907-11.8598-4.1147-17.6946-6.5025-2.7562-1.095-5.5498-1.9644-8.3972-2.7905-7.94-2.382-15.7265-5.1652-23.4805-8.0938-5.4488-2.0443-10.9252-3.7562-16.5195-5.3437-6.3685-1.812-12.4564-3.9968-18.5706-6.5303-4.176-1.723-8.3383-3.1484-12.6833-4.372C34.6138 167.3092 29.8137 165.6294 25 164v2h2l1 2c2.0167 1.1335 2.0167 1.1335 4 2-3.486 1.743-6.8937-.3806-10.4387-1.555a691.1425 691.1425 0 0 1-4.0474-1.3674c-2.0654-.6989-4.1393-1.367-6.215-2.0346-1.31-.4422-2.6192-.8861-3.9278-1.332l-3.6272-1.2095C1 161 1 161-.1091 158.5759c.143-3.3743 1.0508-4.205 3.4841-6.5017l2.2383-2.166L8 147.6875a1888.3375 1888.3375 0 0 0 4.5625-4.3633l2.263-2.1645c2.692-2.6737 5.1797-5.4837 7.6362-8.3733 2.3798-2.7636 4.867-5.3015 7.5383-7.7864h2l.754-1.746c1.4238-2.5756 3.0703-4.2741 5.1835-6.3165l2.0898-2.0352L42 113a791.9637 791.9637 0 0 0 3-3l1 2h-2l-.875 2.375C42 117 42 117 40 119l4 1 .746-1.6992c3.0114-5.5255 7.957-12.2058 14.8165-11.5508Z"/><path fill="#E2A46C" d="M267.336.1133c6.159 1.009 12.1557 2.791 18.164 4.4492 2.6773.7293 5.356 1.4533 8.0352 2.1758l2.089.564c9.0347 2.4283 18.1174 4.6659 27.2 6.907 7.5223 1.8605 15.0184 3.7985 22.5022 5.8083 5.8816 1.5729 11.7774 3.09 17.6736 4.6074l3.94 1.0146c2.8288.7284 5.6577 1.4561 8.4868 2.1836 4.0272 1.0359 8.0538 2.0744 12.0802 3.1133 3.4446.8883 6.8897 1.775 10.3348 2.6613 1.6593.4272 3.3185.855 4.9775 1.2834 9.3065 2.4023 18.6179 4.7438 27.9965 6.8506C435.8929 42.8929 435.8929 42.8929 437 44c.1393 6.4062-2.846 9.9241-6.6445 14.879-2.4703 3.273-4.7351 6.63-6.9805 10.0585-2.9327 4.4622-5.9277 8.8687-9.0195 13.2227l-1.9019 2.6818a978.3023 978.3023 0 0 1-3.7197 5.193c-.571.803-1.1418 1.6062-1.73 2.4338l-1.5369 2.1386C403.628 97.607 402.3618 100.7602 401 104l1.9362 1.9025a5919.8646 5919.8646 0 0 1 18.0125 17.7872c3.0807 3.0546 6.1659 6.1043 9.2617 9.1436a1799.0012 1799.0012 0 0 1 8.9283 8.831 611.064 611.064 0 0 0 3.4163 3.362c1.5996 1.5634 3.183 3.1417 4.7634 4.7244l2.7454 2.7119C452 155 452 155 452.2926 157.828L452 160l-2-1-.33-1.7572c-.9745-3.2622-2.9389-4.7875-5.3892-7.128l-1.4832-1.431a768.44 768.44 0 0 0-3.1937-3.0609c-1.69-1.6145-3.3668-3.2416-5.0401-4.8735-4.7574-4.6384-9.5231-9.2673-14.3319-13.8524-2.9427-2.8078-5.8577-5.642-8.7566-8.4949a247.3542 247.3542 0 0 0-3.3518-3.2073c-8.8437-8.315-8.8437-8.315-9.5634-13.15.2378-2.499.6387-4.671 1.4399-7.0448-2.8742 2.716-2.8742 2.716-5 6-1.5215-.1163-3.0422-.2436-4.5625-.375l-2.5664-.211c-3.4233-.4936-6.5595-1.4106-9.8711-2.414a9978.5238 9978.5238 0 0 0-4.7422-1.4023 9330.318 9330.318 0 0 1-5.1328-1.5352l-2.5664-.7637c-4.0706-1.2187-8.1125-2.4779-12.129-3.8652-3.6815-1.2457-7.3566-2.1203-11.1567-2.9194-3.9655-.897-7.8281-2.1263-11.7104-3.3267-7.4322-2.2678-14.8833-4.4295-22.3865-6.4504-3.5228-.9586-6.9933-1.993-10.4494-3.1707-5.4954-1.8609-11.0732-3.3965-16.6641-4.9414l-3.332-.9272c-4.9204-1.3685-9.8428-2.7292-14.7657-4.0884-7.5022-2.0729-14.994-4.1754-22.4648-6.3594l-2.1973-.6392c-5.062-1.4904-5.062-1.4904-7.3027-2.6108 1.4519-4.308 3.7563-7.5518 6.5625-11.0625.8947-1.1483 1.7892-2.2967 2.6836-3.4453 1.7895-2.2782 3.5975-4.5402 5.414-6.7969l2.4649-3.1328 2.2578-2.8086C252.2806 24.5221 252.3145 22.6873 252 19c0-3.5986.9583-5.0945 3-8h2l.6875-2.125c4.0861-8.9506 4.0861-8.9506 9.6484-8.7617Z"/><path fill="#E3A46C" d="M396 107c2.6126 1.7776 2.6126 1.7776 5.0774 4.2986l1.3825 1.3843c1.4953 1.5052 2.9644 3.0335 4.4346 4.5632a1455.7806 1455.7806 0 0 0 3.1169 3.154c2.729 2.7614 5.4367 5.5426 8.14 8.329 3.2934 3.3873 6.61 6.7517 9.9244 10.1183 2.577 2.6181 5.15 5.2399 7.7113 7.8734l2.7825 2.8512 2.4527 2.5234C442.859 154.054 442.859 154.054 445 155v2l-3 .9883c-8.2307 2.695-8.2307 2.695-16.375 5.6367-2.5997.9861-5.1717 1.8935-7.8125 2.75-3.5691 1.1705-7.0538 2.4908-10.5469 3.871-7.266 2.8068-14.6288 5.262-22.0292 7.6874-13.057 4.283-26.0379 8.7248-38.9588 13.4038-9.9941 3.6028-20.0604 6.9655-30.158 10.2649-6.1055 2.0061-12.1053 4.1268-18.0508 6.5673-2.4043.9653-4.826 1.7518-7.3188 2.4556-2.7935.7925-5.4109 1.632-8.125 2.6875C280 214 280 214 278.0352 213.2617c-2.2181-1.3751-3.5588-2.7568-5.2227-4.7617-2.721-3.2162-5.484-6.3776-8.3125-9.5-3.264-3.6168-6.488-7.2639-9.6875-10.9375-2.0846-2.3721-4.1968-4.718-6.3125-7.0625-9.9733-11.0607-9.9733-11.0607-13.8125-15.9375-1.5262-2.1523-1.5262-2.1523-3.6875-3.0625v-3l3.6367-1.0664c15.5238-4.5856 30.933-9.5026 46.1211-15.1094 7.2174-2.653 14.559-4.8311 21.9517-6.9353 3.4098-.9834 6.7541-2.0307 10.0678-3.303 5.333-2.0471 10.779-3.7352 16.2227-5.4609l3.368-1.074c5.3528-1.7042 10.7106-3.39 16.0805-5.04 6.673-2.053 13.275-4.2657 19.864-6.5735l2.5898-.9067c5.28-1.8606 10.5226-3.7966 15.711-5.9019 3.2985-.8692 5.9804-.9149 9.3867-.6289Z"/><path fill="#E2A46C" d="M189 1c1.5522 1.5471 1.5522 1.5471 3.0234 3.5352l1.6563 2.205 1.6953 2.3223 1.6719 2.2402a937.9199 937.9199 0 0 1 3.3037 4.4595C202.8782 19.1915 205.4398 22.5951 208 26l-1 2-3-2h-2c3.5166 5.7535 7.0122 11.2754 11.5117 16.3086 1.6964 1.9279 3.2903 3.9116 4.8633 5.9414l1.5234 1.9531C221 52 221 52 221 55c-10.0478 3.2447-20.0785 6.365-30.3008 9.0156-3.86 1.0272-7.6861 2.1499-11.5117 3.2969-9.6215 2.874-19.3225 5.4485-29.0234 8.039l-3.128.837a2488.3987 2488.3987 0 0 1-5.955 1.584c-4.2117 1.1265-8.3781 2.2942-12.503 3.708-5.534 1.8892-11.176 3.3423-16.8281 4.832-8.2893 2.2085-16.566 4.4492-24.8125 6.8125l-2.5596.7322c-4.1026 1.1799-8.196 2.3851-12.2802 3.6272l-2.3533.7104c-1.4455.438-2.8891.882-4.3306 1.333C58.335 101.6728 58.335 101.6728 55 101c-1.9219-2.168-1.9219-2.168-3.75-5.1875l-2.1055-3.3633-1.0796-1.7524c-1.6225-2.5852-3.375-5.0735-5.1274-7.5718-4.9851-7.1677-9.8932-14.3874-14.7971-21.6108l-1.8826-2.7681-1.683-2.4788c-1.5435-2.2805-1.5435-2.2805-3.2784-4.3764C20 50 20 50 20 47l6-1 1-3-1.8281.4727-2.4219.5898-2.3906.5977c-2.4877.3583-3.9727.0113-6.3594-.6602 8.6118-2.737 17.2494-5.1633 26.0234-7.3203l3.6604-.9097c2.5699-.6385 5.14-1.2757 7.7108-1.9108 6.0751-1.5012 12.1473-3.0145 18.2197-4.5266 2.0216-.5033 4.0432-1.0062 6.0648-1.509 10.8253-2.694 21.641-5.4238 32.4459-8.1986l2.3239-.5963c11.9557-3.0715 23.8875-6.231 35.8146-9.4115C157.7973 6.5442 169.37 3.6857 181 1l1.9868-.6172C185.4093-.0778 186.714.0763 189 1Z"/><path fill="#55361C" d="M220 59h4v96c-6.9958-1.3992-10.928-2.3504-17-5-2.1565-.5332-4.3108-.977-6.496-1.375-2.857-.7131-5.539-1.7586-8.2845-2.8135-3.889-1.422-7.8694-2.5327-11.8445-3.6865-7.0764-2.0857-14.011-4.362-20.9375-6.9023C153.0247 132.9417 146.51 130.9825 140 129l-2.9883-.9102c-4.6585-1.4067-9.3289-2.7664-14.0117-4.0898v-2l-2.9648-.3477c-4.3304-.6198-8.4205-1.8162-12.5977-3.0898l-2.209-.6582c-6.1155-1.833-12.142-3.8378-18.1035-6.123-4.9416-1.8168-9.9669-3.3655-15-4.9063l-3.4922-1.0703L66 105v-2l1.6455-.3955c13.9699-3.353 13.9699-3.353 27.6514-7.71 2.8337-.9377 5.6932-1.6677 8.5923-2.3742 3.4916-.8606 6.9573-1.8122 10.4233-2.7703l2.3723-.655c5.3813-1.5054 10.6926-3.1704 16.0027-4.9075 8.5722-2.7887 17.2665-5.0362 26-7.25 9.2615-2.3487 18.4574-4.7618 27.5469-7.7148 4.7164-1.5314 9.456-2.977 14.2031-4.4102l2.4773-.7583c4.7512-1.4334 9.4892-2.6371 14.355-3.618 1.7485-.2835 1.7485-.2835 2.7302-1.4362Z"/><path fill="#55361D" d="M229 60c10.125 1.125 10.125 1.125 14 2v2l3.0898.3867c3.625.5686 6.959 1.3846 10.4727 2.4258l3.7227 1.0898L264 69c9.427 2.734 18.8824 5.3464 28.3613 7.894C296.9603 78.1375 301.489 79.4624 306 81a652.337 652.337 0 0 0 6.875 2l3.4922 1c2.491.6857 4.9934 1.3309 7.5039 1.9414 4.5117 1.1143 8.901 2.5532 13.3164 3.9961 6.5387 2.1053 13.0393 3.8984 19.7578 5.3516C362.3885 96.5559 367.6843 98.2853 373 100l2.746.8516 2.4415.7734 2.1055.664C382 103 382 103 384 105c-12.4236 4.858-12.4236 4.858-18.25 6.75-3.5078.8587-3.5078.8587-4.75 2.25-2.043.4383-4.086.8762-6.1294 1.313-5.8552 1.4013-11.5701 3.3107-17.3081 5.1245-2.5194.7908-5.039 1.5812-7.5586 2.371l-3.6284 1.1441c-2.9611.9188-5.931 1.789-8.9107 2.645-3.7327 1.1034-6.9832 2.6546-10.4648 4.4024-2.9063.9543-5.8533 1.7279-8.8125 2.5-1.6176.4359-3.2348.8734-4.8516 1.3125l-2.3056.625c-3.7327 1.0342-7.3745 2.2888-11.0303 3.5625a3993.7997 3993.7997 0 0 1-7.5 2.5l-3.9375 1.3125-16.125 5.375-1.9482.6497a4652.89 4652.89 0 0 1-3.9551 1.3159c-2.8027.9317-5.6021 1.8704-8.3936 2.8352C232.3056 155 232.3056 155 229 155V60Z"/><path fill="#8A4F2A" d="M253 18c.5902 4.6969.2516 7.1527-2.5625 11.0156A242.4206 242.4206 0 0 1 247 33.25a4503.6887 4503.6887 0 0 0-3.5781 4.4883l-1.7715 2.1938c-2.218 2.779-4.3155 5.6253-6.4004 8.5054l-1.8594 2.5586C231.9693 52.9426 231.9693 52.9426 231 55c6.0392 1.689 12.093 3.2725 18.1875 4.75 7.9804 1.9544 15.8443 4.2733 23.7217 6.6035 7.221 2.1272 14.465 4.1186 21.7639 5.9607 4.3647 1.1143 8.6106 2.4259 12.874 3.8782 4.776 1.5725 9.6204 2.9208 14.4529 4.3076 6.3756 1.8296 12.713 3.7037 18.9949 5.8337 2.9755.9887 5.9831 1.8314 9.0051 2.6663l2.4116.6675a3154.072 3154.072 0 0 0 8.2759 2.27l2.955.8076c6.0098 1.6356 12.0293 3.1931 18.0802 4.669 2.8089.7227 5.5335 1.649 8.2773 2.5859 1.6609.361 3.3262.7046 5 1l.8125-2.4375L397 96l3-1c.7267 2.826 1.1503 4.5343.2408 7.3527-.5483 2.8031-.5483 2.8031 1.5818 5.151l2.7614 2.6662 1.5118 1.4853a375.2742 375.2742 0 0 0 3.274 3.1656c1.7362 1.6596 3.4529 3.3372 5.1657 5.0209 3.6384 3.5698 7.2997 7.1156 10.9645 10.6583 4.2463 4.1048 8.4827 8.2189 12.6947 12.359 1.694 1.655 3.405 3.291 5.1172 4.927a2449.8594 2449.8594 0 0 1 3.1041 3.044l2.7614 2.6662C451 156 451 156 450.9232 158.738 450 161 450 161 447.8125 162.3633c-6.2173 2.0983-11.2504 3.067-17.8125 2.6367l1-3c2.296-1.083 4.6348-2.078 7-3l2.25-1.1875C442 157 442 157 445 157v-2l-1.7204-.7276c-2.7508-1.5354-4.5617-3.3657-6.7535-5.6303l-2.6607-2.7297-1.4082-1.4577c-1.4617-1.5105-2.9317-3.0124-4.4048-4.512-4.1862-4.2623-8.3655-8.5311-12.518-12.8265-2.5441-2.6304-5.1051-5.2434-7.6778-7.8459a314.6135 314.6135 0 0 1-2.905-2.9976c-1.3467-1.4071-2.7177-2.791-4.0895-4.1736l-2.3389-2.4042c-3.3402-2.2437-5.5758-2.0453-9.5232-1.6949-2.7869.6377-2.7869.6377-5.4336 1.6445l-2.9668 1.0528-3.0371 1.1152-3.0254 1.08c-5.5326 1.9825-11.0359 4.04-16.5371 6.1075-5.588 1.9747-11.246 3.6633-16.9375 5.3125-12.7115 3.695-25.232 7.9468-37.6563 12.5117-3.5787 1.2353-7.1843 2.3169-10.8134 3.3924-4.1011 1.2392-8.1577 2.6043-12.2178 3.9709l-2.6868.8972a2502.069 2502.069 0 0 0-15.0359 5.0794l-3.2026 1.0852c-2.036.69-4.0702 1.3848-6.1025 2.0854-6.0577 2.047-12.0447 3.5812-18.3472 4.6653l-1-3c2.7427-3.7 6.8381-4.3588 11.0625-5.5l4.6328-1.3086c1.4348-.3974 2.8697-.7945 4.3047-1.1914 5.0335-1.426 9.918-2.9235 14.75-4.9375 5.202-2.1463 10.528-3.63 15.9453-5.1328 4.156-1.1692 8.2221-2.5301 12.3047-3.9297 2.4995-.835 4.9994-1.6683 7.5-2.5l3.6563-1.2188L348 116l3.1633-1.1013C354 114 354 114 357.5625 113.5625c3.6439-.5963 5.318-1.6763 8.4375-3.5625 2.4996-.8164 5.0204-1.5234 7.5508-2.2383 3.0032-.934 5.7003-2.2426 8.4492-3.7617-6.202-2.126-12.4397-4.036-18.75-5.8125l-2.7129-.7705a6324.755 6324.755 0 0 0-11.4726-3.2446 5512.5817 5512.5817 0 0 1-5.7881-1.636c-1.8112-.513-3.623-1.0237-5.4356-1.5318-3.2116-.9102-6.3503-1.8078-9.4502-3.0515-3.297-1.3145-6.6987-2.119-10.1406-2.9531l-2.1584-.533c-3.6658-.8994-7.3354-1.7515-11.0291-2.5295-2.822-.6085-5.5122-1.3829-8.2422-2.3203-4.6433-1.5686-9.3133-3.0225-14.0078-4.4297l-2.5671-.7705c-9.2653-2.7567-18.5935-5.2745-27.9275-7.7861-3.1147-.8478-6.217-1.734-9.3179-2.6309v-2l-2.0117-.1836c-4.3922-.4168-8.6684-.9-12.9883-1.8164h-3v-2c-3.4437 1.3325-3.4437 1.3325-6.75 2.9648-2.934 1.3499-5.8534 1.9892-9 2.7227-12.0618 2.896-23.9543 6.474-35.8157 10.096-6.0832 1.8554-12.207 3.4686-18.3718 5.029-8.1577 2.0935-16.1952 4.411-24.2065 7.0049-7.482 2.4143-15.0363 4.5133-22.6221 6.5737-2.998.8172-5.9917 1.6494-8.9851 2.483-1.4891.4144-2.9786.8279-4.4683 1.2402a1413.0726 1413.0726 0 0 0-11.7727 3.3115l-2.4766.7031c-1.5663.445-3.1314.894-4.6953 1.3477C72.3873 102.452 69.6155 103 66 103v2l2.0938.414c3.1404.6332 6.2756 1.2807 9.4062 1.961l3.3438.711c3.1513.9126 5.4202 2.1358 8.1562 3.914a208.063 208.063 0 0 0 5 2c1.3405.6521 2.6766 1.3138 4 2v4c-6.9093-1.4918-13.4803-3.454-20.0625-6-11.713-5.2389-11.713-5.2389-23.9375-5-2.4948 1.9751-2.4948 1.9751-4.75 4.4375l-2.3594 2.4336C44.9648 117.8542 44.9648 117.8542 44 120c-2.3216.4073-4.6569.7444-7 1l1.2773-1.461 1.6602-1.914 1.6523-1.8984c1.4798-1.683 1.4798-1.683 2.4102-3.7266h2l.3125-1.8125c.7763-2.47 1.7584-3.51 3.6875-5.1875-1.5355-4.4146-3.8883-8.1-6.5-11.9375l-1.3508-2.0056c-2.8809-4.2546-5.8365-8.4483-8.8367-12.6194-4.5376-6.3136-9.0093-12.6717-13.4375-19.0625l-2.0496-2.9124c-.6256-.908-1.2512-1.816-1.8957-2.7517l-1.7114-2.4594C13 49 13 49 13 45c4.8424-1.3358 8.9344-2.2533 14-2l-1 4h-6c3.3912 6.2071 7.3063 11.9879 11.3125 17.8125l1.9355 2.83C38.324 75.0533 43.464 82.418 48.6523 89.75L50.9375 93l1.205 1.6914C55 98.7734 55 98.7734 55 101c9.927-2.3902 19.7778-4.8307 29.4939-7.981 12.2812-3.9245 24.8367-6.9944 37.299-10.2846l2.072-.5486a2295.446 2295.446 0 0 1 5.182-1.3616c1.8919-.528 3.7721-1.1012 5.6328-1.7305 4.851-1.5979 9.7733-2.9207 14.6953-4.2812 9.638-2.6804 19.252-5.433 28.8516-8.2478 7.54-2.2098 15.0904-4.3803 22.6494-6.524l2.3974-.6813 2.331-.6621c3.4323-.999 6.8435-2.0653 10.2535-3.1377C218 55 218 55 221 55c-2.769-5.3074-6.1135-9.731-9.8945-14.3633C202 29.2337 202 29.2337 202 26l3-1c4.822 3.0076 7.8391 7.4768 11.125 12l1.5898 2.1563a1269.0126 1269.0126 0 0 1 2.9932 4.078c1.415 1.9338 2.848 3.8535 4.292 5.7657 3.4387-1.4265 5.0835-3.0635 7.2422-6.0703l1.793-2.4688 1.8398-2.5859c1.2054-1.6695 2.4112-3.3387 3.6172-5.0078l1.7764-2.4658L243 28l1.6768-2.331 1.581-2.1612 1.3872-1.9097C250.6957 18 250.6957 18 253 18Zm147 76 2 1Z"/><path fill="#864B27" d="M279.178 68.3916c6.2836 1.886 12.5124 3.5948 18.943 4.9053 3.182.7771 6.2217 1.8055 9.3207 2.8603 4.8112 1.585 9.6899 2.9457 14.5583 4.3428 6.3756 1.8296 12.713 3.7037 18.9949 5.8337 2.9755.9887 5.9831 1.8314 9.0051 2.6663l2.4116.6675a3154.072 3154.072 0 0 0 8.2759 2.27l2.955.8076c6.0098 1.6356 12.0293 3.1931 18.0802 4.669 2.8089.7227 5.5335 1.649 8.2773 2.5859 1.6609.361 3.3262.7046 5 1l.8125-2.4375L397 96l3-1c.7267 2.826 1.1503 4.5343.2408 7.3527-.5483 2.8031-.5483 2.8031 1.5818 5.151l2.7614 2.6662 1.5118 1.4853a375.2742 375.2742 0 0 0 3.274 3.1656c1.7362 1.6596 3.4529 3.3372 5.1657 5.0209 3.6384 3.5698 7.2997 7.1156 10.9645 10.6583 4.2463 4.1048 8.4827 8.2189 12.6947 12.359 1.694 1.655 3.405 3.291 5.1172 4.927a2449.8528 2449.8528 0 0 1 3.1041 3.044l2.7614 2.6662C451 156 451 156 450.9232 158.738 450 161 450 161 447.8125 162.3633c-6.2173 2.0983-11.2504 3.067-17.8125 2.6367l1-3c2.296-1.083 4.6348-2.078 7-3l2.25-1.1875C442 157 442 157 445 157v-2l-1.7204-.7276c-2.7508-1.5354-4.5617-3.3657-6.7535-5.6303l-2.6607-2.7297-1.4082-1.4577c-1.4617-1.5105-2.9317-3.0124-4.4048-4.512-4.1862-4.2623-8.3655-8.5311-12.518-12.8265-2.5441-2.6304-5.1051-5.2434-7.6778-7.8459a314.6136 314.6136 0 0 1-2.905-2.9976c-1.3467-1.4071-2.7177-2.791-4.0895-4.1736l-2.3389-2.4042c-3.3402-2.2437-5.5758-2.0453-9.5232-1.6949-2.7869.6377-2.7869.6377-5.4336 1.6445l-2.9668 1.0528-3.0371 1.1152-3.0254 1.08c-5.5326 1.9825-11.0359 4.04-16.5371 6.1075-5.588 1.9747-11.246 3.6633-16.9375 5.3125-12.7115 3.695-25.232 7.9468-37.6563 12.5117-3.5787 1.2353-7.1843 2.3169-10.8134 3.3924-4.1011 1.2392-8.1577 2.6043-12.2178 3.9709l-2.6868.8972a2502.0698 2502.0698 0 0 0-15.0359 5.0794l-3.2026 1.0852c-2.036.69-4.0702 1.3848-6.1025 2.0854-6.0577 2.047-12.0447 3.5812-18.3472 4.6653l-1-3c2.7427-3.7 6.8381-4.3588 11.0625-5.5l4.6328-1.3086c1.4348-.3974 2.8697-.7945 4.3047-1.1914 5.0335-1.426 9.918-2.9235 14.75-4.9375 5.202-2.1463 10.528-3.63 15.9453-5.1328 4.156-1.1692 8.2221-2.5301 12.3047-3.9297 2.4995-.835 4.9994-1.6683 7.5-2.5l3.6562-1.2187L348 116l3.1633-1.1013C354 114 354 114 357.5625 113.5625c3.6439-.5963 5.318-1.6763 8.4375-3.5625 2.4996-.8164 5.0204-1.5234 7.5508-2.2383 3.0032-.934 5.7003-2.2426 8.4492-3.7617-6.202-2.126-12.4397-4.036-18.75-5.8125l-2.7129-.7705a6324.755 6324.755 0 0 0-11.4726-3.2446 5512.5748 5512.5748 0 0 1-5.7881-1.636c-1.8112-.513-3.623-1.0237-5.4356-1.5318-3.2116-.9102-6.3503-1.8078-9.4502-3.0515-3.297-1.3145-6.6987-2.119-10.1406-2.9531l-2.1584-.533c-3.6658-.8994-7.3354-1.7515-11.0291-2.5295-2.822-.6085-5.5122-1.3829-8.2422-2.3203-4.6433-1.5686-9.3133-3.0225-14.0078-4.4297l-2.5671-.7705c-9.2653-2.7567-18.5935-5.2745-27.9275-7.7861-3.1147-.8478-6.217-1.734-9.3179-2.6309v-1c12.5157-2.454 24.2827 1.8204 36.178 5.3916ZM400 94l2 1Z"/><path fill="#A36D4A" d="M24 163c6.254 1.5946 12.0753 3.4147 18 6 1.5362.4765 3.0785.9332 4.625 1.375 3.9135 1.1299 7.655 2.489 11.4375 4 5.0671 1.991 10.1463 3.6334 15.375 5.125 7.6534 2.1832 15.0989 4.7275 22.5625 7.5l2.539.9102c3.1172 1.1278 5.6865 2.2402 8.461 4.0898l-1 4c-3.3352-.9938-6.668-1.9957-10-3l-3.2773-.9844L89.375 191l-3.1016-.9375c-2.3146-.7513-4.6084-1.568-6.8842-2.4297-4.5897-1.7309-9.2314-3.2841-13.8892-4.8203l-2.4922-.8262A5539.99 5539.99 0 0 0 57 180c.0372 19.5844.097 39.1687.1839 58.753.0398 9.0934.0722 18.1867.0871 27.2802.013 7.9262.04 15.8522.0836 23.7783.0226 4.1966.0383 8.3929.0373 12.5895-.0008 3.9515.0172 7.9024.0493 11.8537.0085 1.4488.0102 2.8976.0046 4.3464-.0066 1.9816.0137 3.9633.0352 5.9448l.0112 3.3576c.6309 3.847 2.125 6.0482 4.5078 9.0965 1.8538 1.255 1.8538 1.255 3.8984 1.793l2.2032.7207 2.2734.6738c1.4882.469 2.9752.9415 4.461 1.418l2.1396.6811c2.8082.9896 5.406 2.3045 8.0244 3.7134l-1 2c-10.2438.9074-19.0202-1.5094-27.125-8-3.2244-2.8234-4.6631-5.8523-5.0875-10.154-.1177-2.7635-.1695-5.5217-.2016-8.2874l-.059-3.2576c-.0614-3.621-.1073-7.2422-.1519-10.8635a609986.73 609986.73 0 0 0-.1128-7.6973c-.317-22.9698-.367-45.9423-.3847-68.914-.0025-2.8189-.0065-5.6377-.0106-8.4566a5768.149 5768.149 0 0 1-.0013-13.4648c.001-1.6606.0005-3.3213-.0017-4.982C50.854 195.2362 50.9698 186.6404 52 178l-2.279-.5732C41.7434 175.3959 33.7826 172.8135 27 168v-2h-2l-1-3Z"/><path fill="#A16847" d="m436 159 2 1-3.4375 1.375c-3.6097 1.196-3.6097 1.196-4.5625 3.625h6c-2.5694 1.713-4.419 2.6067-7.2813 3.586l-2.537.8766-2.6817.9124c-1.8127.623-3.6252 1.2467-5.4375 1.871l-2.6445.9098c-3.8039 1.328-7.5683 2.758-11.3243 4.2153C402 178 402 178 398 178c-1.0843 3.253-1.1274 5.6162-1.1313 9.0395l-.0121 3.8276c.0004 1.4026.001 2.8052.0016 4.2079-.003 1.475-.0066 2.9502-.0106 4.4253-.0079 3.179-.013 6.358-.0163 9.537-.0059 5.0306-.0224 10.0611-.0413 15.0917l-.019 5.1683-.0096 2.6146c-.042 11.7117-.075 23.4234-.0873 35.1352a6227.8117 6227.8117 0 0 1-.0694 23.6982c-.0197 4.1787-.0322 8.3572-.0271 12.536.0046 3.9342-.0093 7.868-.037 11.8021a439.5054 439.5054 0 0 0 .0001 4.3196c.0412 9.0805-.1667 15.9657-6.6657 22.847-6.3533 3.8673-12.3827 6.4015-19.875 5.75v-3l3-1 1-2c2.4336-1.0703 2.4336-1.0703 5.4375-2.125l2.996-1.0703C385 338 385 338 387 338c1.8516-3.9465 2.246-7.0533 2.2338-11.3963l.004-3.9132c-.0087-1.4237-.0176-2.8475-.0266-4.2713a3935.148 3935.148 0 0 1-.004-4.5146 2802.041 2802.041 0 0 0-.0263-9.7071c-.0223-5.1131-.0304-10.2262-.0365-15.3393a14600.978 14600.978 0 0 0-.0569-24.2487c-.0444-14.4876-.0775-28.975-.1002-43.4626a7695.7347 7695.7347 0 0 0-.041-15.2598 5942.7588 5942.7588 0 0 1-.0228-9.473 1805.1443 1805.1443 0 0 0-.0158-4.4045c-.0094-1.9981-.0121-3.9962-.0145-5.9943l-.0107-3.3937C389 180 389 180 390 178l-2-2 1.8008-.5791c2.7352-.8837 5.4672-1.7772 8.1992-2.6709l2.832-.9102c5.0396-1.6563 9.6997-3.5191 14.394-5.9829 2.5338-1.224 5.0929-1.8323 7.8365-2.4194 3.5348-.8089 6.7683-1.6677 10.0625-3.1875L436 159Z"/><path fill="#9E6239" d="M224 166h1v232h2l1-232h1v233l15-6h2v5h-2v2c-2.906 1.2566-4.796 2-8 2l-1 2c-8.9054 4.0286-17.519-.3934-26.0708-3.5554-2.0516-.7561-4.109-1.4944-6.1675-2.2317a2568.2456 2568.2456 0 0 1-3.957-1.4512l-3.5943-1.3137c-4.3757-1.9736-8.0662-4.8073-11.2104-8.448v-2c11.7671 3.4055 23.3579 7.1272 34.6094 11.9844 2.465 1.0848 2.465 1.0848 5.3906 2.0156V166Z"/><path fill="#AF8163" d="M176 4v3l2 1c-4.1235 1.1305-8.249 2.2534-12.375 3.375l-3.504.961c-5.959 1.616-11.888 3.073-17.9535 4.2248-3.1115.6305-6.123 1.5424-9.1675 2.4392a883.7736 883.7736 0 0 1-5.4688 1.4023l-2.9804.7598c-2.033.5167-4.0668 1.0297-6.1016 1.539-4.1725 1.0692-8.0753 2.1358-12.0312 3.8614-4.4451 1.8695-8.8749 2.6554-13.6055 3.5a854.3747 854.3747 0 0 0-5.293.9727l-2.3405.4182C84.901 32.0248 83.0814 32.9294 81 34c-1.9277.3505-3.8679.6353-5.8125.875-8.6441 1.2321-16.942 3.5652-25.3008 6.0508C37.2357 44.6178 37.2357 44.6178 32 42v2l-4-2a480.0276 480.0276 0 0 1 3.8125-1.5l2.1445-.8438C36 39 36 39 39 39v-2l2.1942-.5469C82.185 26.2648 82.185 26.2648 123.125 15.875l2.0645-.53c7.4545-1.9169 14.8828-3.9084 22.2934-5.9886C166.5731 4 166.5731 4 176 4Z"/><path fill="#794120" d="M394 178h1c.0467 20.0446.082 40.0891.1036 60.1337.0103 9.3065.0244 18.613.0473 27.9195.0199 8.1092.0328 16.2183.0373 24.3275.0026 4.296.0088 8.5918.0233 12.8877.0135 4.0399.0177 8.0797.0147 12.1196.0006 1.486.0046 2.9719.0122 4.4578.0099 2.0224.0064 4.0448.0021 6.0673l.0056 3.4357C395 332 395 332 393 334c-2-2-2-2-2.2489-4.5123l.0017-3.2373-.0127-3.709c.0054-1.3638.0111-2.7276.017-4.0914-.001-1.4306-.003-2.8612-.0058-4.2918-.0048-3.8927.0028-7.7853.013-11.678.0088-4.071.007-8.1418.0066-12.2128.001-6.8405.0097-13.681.0233-20.5216.0157-7.907.021-15.814.0203-23.721-.0007-7.6033.0045-15.2065.0127-22.8097.0036-3.2363.0054-6.4727.006-9.709.001-3.8142.007-7.6283.0171-11.4425.003-1.3992.0042-2.7985.0036-4.1977-.0005-1.9118.0058-3.8236.0124-5.7354l.005-3.2407c.1219-2.7368.51-5.2257 1.1287-7.8898h2v-3Z"/><path fill="#9C6848" d="m349 354 1 3-6 2v2l-3.1133 1.1367a3110.1643 3110.1643 0 0 0-4.1992 1.5508l-2.2024.815c-5.1887 1.9462-10.1948 4.1316-15.153 6.6147-2.5941.982-4.5813 1.049-7.3321.8828l-1 2c-2.4699 1.0403-4.9149 1.9814-7.4375 2.875-8.069 2.9131-16.024 6.0469-23.9297 9.379C256.4534 396 256.4534 396 248 396c.2376-2.3654.2376-2.3654 1-5 1.8055-1.2553 1.8055-1.2553 4.199-2.153l2.7208-1.0548 2.9825-1.0852 3.0812-1.1756c3.3112-1.2584 6.6322-2.4886 9.954-3.7189 2.262-.8543 4.5234-1.7106 6.784-2.5688a3072.6126 3072.6126 0 0 1 13.3068-5.0079c7.1124-2.6586 14.2001-5.3779 21.2842-8.1108l2.8728-1.0945c5.7557-2.198 11.452-4.5181 17.132-6.9048 10.9001-4.574 10.9001-4.574 15.6827-4.1257Z"/><path fill="#7F4521" d="M53 179h1l1 24h1c.0005.648.001 1.2961.0017 1.9639a12888.85 12888.85 0 0 0 .1304 47.3496c.0346 7.6328.06 15.2653.0635 22.8982.003 6.6543.0235 13.3083.065 19.9625.0212 3.522.0339 7.0437.0256 10.5658-.009 3.936.021 7.8712.0544 11.8071l-.0262 3.5224c.0991 6.9872.8969 10.74 5.6856 15.9305 1.9362 1.3656 1.9362 1.3656 3.996 1.8906l2.1935.711 2.248.6484c1.479.4599 2.957.9233 4.4336 1.3906l2.1206.6621c2.8076.9748 5.396 2.2897 8.0083 3.6973l-1 2c-10.3047.9128-19.1482-1.4963-27.1875-8.1875-3.7644-3.7644-3.7644-3.7644-3.9355-7.495l.0027-3.4804-.0041-3.9859c.0035-1.4662.0072-2.9324.0109-4.3986.0003-1.5372.0001-3.0744-.0005-4.6116-.0003-4.1816.0056-8.3632.0126-12.5447.0062-4.367.0068-8.7338.008-13.1007.0031-8.2731.0114-16.5462.0214-24.8193.0111-9.417.0167-18.8341.0217-28.2511C52.96 217.75 52.9777 198.375 53 179Z"/><path fill="#8D5430" d="M253 18c.5902 4.6969.2516 7.1527-2.5625 11.0156A242.4206 242.4206 0 0 1 247 33.25a4503.6887 4503.6887 0 0 0-3.5781 4.4883l-1.7715 2.1938c-2.218 2.779-4.3155 5.6253-6.4004 8.5054l-1.8594 2.5586C231.9693 52.9426 231.9693 52.9426 231 55c8.9582 2.5053 17.9708 4.7682 27 7l-3 2c-1.3416-.2981-2.6732-.6414-4-1l-3.5.125c-4.759.0891-9.0223-1.1659-13.5703-2.4688-3.0669-.687-5.7974-.7677-8.9297-.6562v-2l-2.0625 1.0625c-3.6463 1.1637-6.2224.666-9.9375-.0625v2c-3-1-3-1-5-3a894.5333 894.5333 0 0 1 4.8125-1.5l2.707-.8438C218 55 218 55 221 55c-2.769-5.3074-6.1135-9.731-9.8945-14.3633C202 29.2337 202 29.2337 202 26l3-1c4.822 3.0076 7.8391 7.4768 11.125 12l1.5898 2.1563a1269.0126 1269.0126 0 0 1 2.9932 4.078c1.415 1.9338 2.848 3.8535 4.292 5.7657 3.4387-1.4265 5.0835-3.0635 7.2422-6.0703l1.793-2.4688 1.8398-2.5859c1.2054-1.6695 2.4112-3.3387 3.6172-5.0078l1.7764-2.4658L243 28l1.6768-2.331 1.581-2.1612 1.3872-1.9097C250.6957 18 250.6957 18 253 18Z"/><path fill="#CAA78F" d="M431 51c-.1576 6.9831-1.7356 11.0144-6.125 16.375a1181.526 1181.526 0 0 0-3.0313 3.918l-1.4882 1.9116c-1.8149 2.4039-3.4058 4.9167-4.9805 7.4829-3.1478 5.1067-6.7361 9.7939-10.457 14.4883-1.9733 2.9056-2.8793 5.492-3.918 8.8242l1.9362 1.9025a5919.8646 5919.8646 0 0 1 18.0125 17.7872c3.0807 3.0546 6.1659 6.1043 9.2617 9.1436a1799.0012 1799.0012 0 0 1 8.9283 8.831 611.064 611.064 0 0 0 3.4163 3.362c1.5996 1.5634 3.183 3.1417 4.7634 4.7244l2.7454 2.7119C452 155 452 155 452.2926 157.828L452 160l-2-1-.33-1.7552c-.975-3.2667-2.9438-4.8094-5.3892-7.1618l-1.4832-1.4406a756.1962 756.1962 0 0 0-3.1937-3.0806c-1.6893-1.6231-3.3663-3.258-5.0401-4.897-4.7592-4.6585-9.53-9.3043-14.3319-13.9187-2.9382-2.8252-5.854-5.672-8.7566-8.5337a302.6471 302.6471 0 0 0-3.3518-3.229c-8.851-8.4037-8.851-8.4037-9.5409-12.4027.2821-2.1666.2821-2.1666 1.4174-5.5807l-.6406-2.2031C399 93 399 93 400.2656 90.7656L402.25 88.25c.74-.968 1.4798-1.9362 2.2422-2.9336l1.2295-1.605c2.3187-3.1043 4.4754-6.32 6.6533-9.5239 3.6956-5.3988 7.411-10.7824 11.1875-16.125l1.2651-1.8098C428.5608 51 428.5608 51 431 51Z"/><path fill="#966345" d="m27 43-1 4h-6c3.3912 6.2071 7.3063 11.9879 11.3125 17.8125l1.9355 2.83c7.0342 10.306 7.0342 10.306 14.292 20.4544C51 92.8087 51 92.8087 51 95h-2l1 6c-3.0707-2.8813-5.3483-5.8388-7.625-9.375-2.8865-4.4066-5.8503-8.731-8.9375-13-4.5784-6.3765-9.0914-12.7978-13.5625-19.25l-2.049-2.9116-1.8963-2.7525-1.7114-2.4594C13 49 13 49 13 45c4.8424-1.3358 8.9344-2.2533 14-2Z"/><path fill="#A47151" d="M120 359.6875c3.5534.3701 6.0025 1.5864 9.207 3.1055 4.5617 1.9714 9.3095 3.3794 14.047 4.8632 2.6884.9644 4.9208 1.9034 7.41 3.2149 6.5372 3.3792 13.6283 5.4899 20.5762 7.8613l3.2793 1.1465 2.972 1.0178C179.97 381.9868 181.35 382.8725 183 385v2l-5-1-2.25-.375c-4.7136-1.0713-9.4822-2.4563-13.789-4.6758-2.1876-1.1613-2.1876-1.1613-5.7735-1.6992-5.7056-1.1898-10.9516-3.4427-16.3086-5.6719-2.532-1.0502-5.0716-2.0157-7.664-2.9062l-3.5274-1.2344-3.1758-1.0664c-3.12-1.7032-3.4434-3.075-4.5117-6.3711-2.041-.887-2.041-.887-4-1 1-1 1-1 3-1.3125Z"/><path fill="#A67A5F" d="M39 123c-1.2753 2.8002-2.5852 4.8275-4.7815 6.9768l-1.6885 1.6685-1.8152 1.7649-1.8675 1.8445c-1.9652 1.9408-3.9367 3.875-5.9098 5.8078a2650.3177 2650.3177 0 0 0-7.7852 7.6602l-1.8213 1.771C9.9795 153.7909 9.9795 153.7909 8 158l10 2 1 4 2 1c-8.0833.6736-13.7355-1.5583-21-5 .517-4.0024 1.4383-5.9324 4.3164-8.7422l2.0684-2.043 2.1777-2.0898 2.0957-2.0664c5.8887-5.7624 11.9315-11.4393 18.5918-16.3086l1.8906-1.3906L33 126l2.1094-1.6719C37 123 37 123 39 123Z"/><path fill="#C68657" d="M390 181h1l1 151h3c-.3401 3.8548-1.5702 6.602-4.1523 9.5078-4.9054 3.9616-11.7492 6.7917-18.0977 6.8047L370 348v-3l3-1 1-2c2.4336-1.0703 2.4336-1.0703 5.4375-2.125l2.996-1.0703C385 338 385 338 387 338c1.837-3.9292 2.257-7.0498 2.2785-11.3718l.0338-3.8964c.0024-1.4175.0045-2.835.0065-4.2526.0093-1.4982.0195-2.9965.0305-4.4947.0273-4.0616.0424-8.123.0554-12.1847.0157-4.2468.0424-8.4935.068-12.7403.0468-8.0392.0836-16.0785.1167-24.1177.0382-9.1536.0877-18.307.138-27.4606.1033-18.827.1926-37.654.2726-56.4812Z"/><path fill="#894B24" d="M394 178h1l-1 70h-1v85l-2-1a85915.413 85915.413 0 0 1-.0518-56.849c-.0052-8.7987-.0122-17.5973-.0236-26.3959-.01-7.6686-.0165-15.3372-.0187-23.0058a8288.9804 8288.9804 0 0 0-.0116-12.182 5285.4792 5285.4792 0 0 1-.0074-11.4672 1657.4202 1657.4202 0 0 0-.0061-4.2073c-.005-1.9162-.0032-3.8325-.001-5.7488l-.0028-3.2486c.1164-2.741.5022-5.2279 1.123-7.8954h2v-3Z"/><path fill="#C6A187" d="M267.4688.168c5.3497.8617 10.5604 2.2762 15.7812 3.707l2.9688.7773 2.8593.7774 2.5752.6948c2.521.9406 4.2833 2.1663 6.3467 3.8755l-1 3c-7.462-.3553-14.0321-2.024-21.1091-4.2722C272.3935 7.6306 269.7032 7 266 7c-1.4574 1.2706-1.4574 1.2706-2.5781 3.0625l-1.3281 1.914L260.75 14l-1.3906 2.0234C258.2275 17.6741 257.1122 19.336 256 21l-2-2c.3505-5.9587 3.9287-11.7376 7.25-16.5625C264 0 264 0 267.4688.168Z"/><path fill="#864B25" d="M416 122c6.8342 5.7333 13.2013 11.8758 19.5459 18.1409a582.0603 582.0603 0 0 0 3.9512 3.8486c1.9217 1.8552 3.8234 3.729 5.7217 5.6082l1.805 1.7207c3.9767 3.9972 3.9767 3.9972 3.9742 7.4965C450 161 450 161 447.8125 162.3633c-6.2173 2.0983-11.2504 3.067-17.8125 2.6367l1-3c2.296-1.083 4.6348-2.078 7-3l2.25-1.1875C442 157 442 157 445 157v-2l-1.718-.739c-4.675-2.5834-8.2166-6.8262-11.9695-10.5735l-2.666-2.5918-2.5332-2.5215-2.3191-2.2942c-1.9894-2.528-2.2669-4.1637-2.7942-7.28-1.6265-1.7059-3.29-3.3778-5-5v-2Z"/><path fill="#B38566" d="M399.8086 35.8477C410.6436 36.489 420.599 38.9659 431 42v2l3 1-1 5h-3v-2l-3.8281-.8477c-1.724-.3837-3.448-.7679-5.1719-1.1523l-2.6309-.5854c-2.7086-.6078-5.414-1.2289-8.1191-1.8521l-2.7852-.6191C402.8196 41.8644 398.9365 40.8366 395 38c2-2 2-2 4.8086-2.1523Z"/><path fill="#905730" d="M323 17c8.1365.1633 15.6827 1.4337 23.5625 3.375l2.6318.6335C353.369 22.0783 356.7864 22.9555 360 26l-1 3c-11.247-1.375-22.0576-4.1312-33-7v-2l-4-1 1-2Z"/><path fill="#A57252" d="m349 354 1 3-6 2v2c-2.498.964-4.9981 1.9213-7.5 2.875l-2.1094.8164C321.0396 369.76 321.0396 369.76 314 368c3.0076-3.3907 5.6875-4.9597 9.9023-6.5781l3.4473-1.3281 3.5879-1.3438c1.1801-.459 2.3603-.9178 3.5762-1.3906 9.6066-3.6535 9.6066-3.6535 14.4863-3.3594Z"/><path fill="#A06D4E" d="m59 332 1.1055 2.3672c2.722 3.7828 5.8618 4.4362 10.207 5.7578 1.4973.478 2.9934.9597 4.4883 1.4453l2.1587.7002C79.7684 343.2747 82.3757 344.5898 85 346l-1 2c-10.279.9105-19.0206-1.5533-27.1875-8-2.1887-2.0506-2.791-2.9343-3.75-5.875L53 332c3.75-1.125 3.75-1.125 6 0Z"/><path fill="#884C27" d="m69 32-1 4-2.8945.7695-1.8806.501c-1.3677.3638-2.7357.7265-4.104 1.0879-3.1073.8236-6.2015 1.6654-9.285 2.5752C37.267 44.6335 37.267 44.6335 32 42v2l-4-2a480.0276 480.0276 0 0 1 3.8125-1.5l2.1445-.8438C36 39 36 39 39 39v-2c9.762-2.6384 19.82-5.2437 30-5Z"/><path fill="#844B24" d="M253 18c.6587 4.8757.1322 7.3168-2.7734 11.332a256.2423 256.2423 0 0 1-3.6016 4.4805l-1.8281 2.3105c-2.1783 2.7375-4.322 5.402-6.7969 7.877h-2l-1.4375 1.5C233 47 233 47 230 47c1.3796-2.9282 2.9681-5.4953 4.8633-8.1172l1.6894-2.3398 1.7598-2.418 1.7246-2.3945C249.9866 18 249.9866 18 253 18Z"/><path fill="#DFBBA4" d="M396 178h2l-1 3c-.1032 2.0292-.1464 4.0616-.1582 6.0933l-.0297 3.8626c-.0059 1.4153-.0117 2.8307-.0174 4.246a7990.0293 7990.0293 0 0 1-.03 4.4643c-.027 4.043-.048 8.0862-.068 12.1293-.0219 4.224-.0493 8.4482-.076 12.6722-.05 8.0004-.095 16.0007-.1381 24.0011a41292.372 41292.372 0 0 1-.1597 27.3226A90951.047 90951.047 0 0 0 396 332h-1c-.0233-19.9314-.041-39.8629-.0518-59.7944-.0052-9.2538-.0122-18.5077-.0236-27.7615-.01-8.0627-.0165-16.1253-.0187-24.188a9216.2162 9216.2162 0 0 0-.0116-12.8154c-.0068-4.016-.009-8.0321-.0074-12.0482a1852.5538 1852.5538 0 0 0-.0061-4.4349c-.005-2.0096-.0032-4.0192-.001-6.0289l-.0028-3.4162C395 179 395 179 396 178Z"/><path fill="#975930" d="M277 382c-.1875 1.875-.1875 1.875-1 4-2.375 1.0625-2.375 1.0625-5 2l-1.3438 1.4258C264.2312 394.582 255.15 395.531 248 396c.1428-2.3306.1428-2.3306 1-5 2.4685-1.5015 2.4685-1.5015 5.7148-2.711l3.5176-1.332 3.7051-1.332 3.6934-1.4023c9.072-3.3712 9.072-3.3712 11.3691-2.2227Z"/><path fill="#905630" d="M174 140c8.1791 1.9554 16.1782 3.8713 24 7 2.322.7203 4.6528 1.3643 7 2v1l-6 1 9 3c-4.8345 1.2086-7.7366.0535-12.2656-1.5273l-2.4043-.8115c-2.5301-.8564-5.055-1.7273-7.5801-2.5987a4822.9785 4822.9785 0 0 0-5.1484-1.748c-4.2044-1.4272-8.404-2.8674-12.6016-4.3145 3.75-1.125 3.75-1.125 6 0v-3Z"/><path fill="#894E29" d="M24 163c6.254 1.5946 12.0753 3.4147 18 6 2.5284.8144 5.07 1.5647 7.621 2.3047 2.8192.824 5.6003 1.7447 8.379 2.6953v1h-6v2c-8.755-.7959-18.1573-3.2977-25-9v-2h-2l-1-3Z"/><path fill="#854924" d="M361 27a143.9844 143.9844 0 0 1 6 0l1 1c1.7887.1615 3.5816.2782 5.375.375 6.064.4782 12.0001 1.1876 17.625 3.625 2.1875 2.6875 2.1875 2.6875 3 5-7.3492.4323-13.9022-1.1823-21-3v-2l-2.1172-.0781-2.7578-.1719-2.7422-.1406C363 31 363 31 361.6797 28.953L361 27Z"/><path fill="#965831" d="M184 385c6.0527 1.7517 12.0675 3.6234 18.0625 5.5625l2.0217.6355c1.6586.5431 3.2904 1.1665 4.9158 1.802l1 2h-8l2.5.8125L208 397l2.0742.6953 2.1133.7422 1.9805.6836c2.0636.99 3.31 2.1872 4.832 3.8789-5.9744-1.0498-11.461-3.2568-17.125-5.375l-3.3242-1.211-3.1836-1.1874-2.9028-1.0757c-2.424-1.132-3.7276-2.1564-5.4644-4.1509l-1.6875-1.5625C184 387 184 387 184 385Z"/><path fill="#894B24" d="M138 16v2c-4.207 1.1506-8.4158 2.2946-12.625 3.4375l-3.6055.9863-3.496.9473-3.2056.8728c-3.011.742-6.0035 1.2882-9.0679 1.7561.25-1.875.25-1.875 1-4 2.5815-1.721 3.8492-2 7-2v-2l3.3945-.4023c1.4727-.1783 2.9454-.3567 4.418-.5352l2.2363-.2637C135.5217 15.3972 135.5217 15.3972 138 16Z"/><path fill="#986445" d="M204 25c5.4625 3.1413 8.688 7.0053 12.375 12.0625l1.6523 2.1816C222 44.6057 222 44.6057 222 48l-3-2-2 2c-15-18.3117-15-18.3117-15-22l2-1Z"/><path fill="#894C29" d="m27 43-1 4h-6l1.9375 3.4375 1.0898 1.9336c.87 1.6077.87 1.6077 1.9727 2.6289a143.9844 143.9844 0 0 1 0 6c-4.4042-1.354-6.2369-3.093-8.8125-6.875l-1.832-2.6172C13 49 13 49 13 45c4.8424-1.3358 8.9344-2.2533 14-2Z"/><path fill="#8F5129" d="M267 1.75c4.632.0385 8.7146 1.6175 13 3.25v1l-2.711-.2734c-6.9329-.3268-6.9329-.3268-12.9335 2.6948C261.0458 12.2794 258.4776 16.5756 256 21l-2-2c.567-6.8034 4.1197-11.505 9-16 1-1 1-1 4-1.25Z"/><path fill="#8B4B26" d="M189 1c4.0193 3.803 7.259 7.9748 7.9375 13.5625L197 18h-3c-1.7969-2.371-1.7969-2.371-3.75-5.4375-2.571-3.9381-2.571-3.9381-6.3281-6.5156C181.8248 5.7317 181.8248 5.7317 179 6V3h2V1c3.0799-.99 4.9574-1.1374 8 0Z"/><path fill="#8B4E2B" d="M388 335h4c-.375 1.9375-.375 1.9375-1 4l-2 1v3c-12.4852 5.7403-12.4852 5.7403-19 5v-3l3-1 1-2c2.4336-1.0703 2.4336-1.0703 5.4375-2.125l2.996-1.0703C385 338 385 338 387 338l1-3Z"/><path fill="#AD8167" d="m318 366-2 2 10-1c-3.299 3.299-7.2968 4.8913-11.9375 5.1875L312 372l-1 2c-2.0895.9757-4.223 1.8585-6.375 2.6875l-3.5234 1.3867C298 379 298 379 295 378l7-3-4-3c2.9534-1.2 5.9134-2.3828 8.875-3.5625l2.5508-1.0371 2.4414-.9668 2.2534-.9045C316 365 316 365 318 366Z"/><path fill="#8D512D" d="M153 9v3l3 2-2.9219.621c-1.2633.2695-2.5265.539-3.8281.8165l-3.7969.8086c-2.4987.5455-4.9786 1.1103-7.4531 1.7539l-1-2-14 1c2.9093-1.9395 4.8505-2.6373 8.1836-3.5078l3.0605-.8008 3.1934-.8164 3.1816-.8398C144.914 9.9238 148.5381 9 153 9Z"/><path fill="#9C6442" d="m436 159 2 1-3.4375 1.375c-3.6097 1.196-3.6097 1.196-4.5625 3.625h6c-3.3634 2.2423-6.7634 3.426-10.5625 4.6875l-2.0762.7207c-1.7678.5916-3.5636 1.0981-5.3613 1.5918-2-1-2-1-4-3-2.0687-.6425-2.0687-.6425-4-1 5.2582-2.5096 10.4525-3.8998 16.1172-5.2344 2.489-.661 4.676-1.4424 7.0078-2.5156L436 159Z"/><path fill="#905E3F" d="M445 155h5c1.125 3.75 1.125 3.75 0 6-6.6766 3.2668-12.6279 4.4834-20 4l1-3c2.296-1.083 4.6348-2.078 7-3l2.25-1.1875C442 157 442 157 445 157v-2Z"/><path fill="#986041" d="m409 79 1 2c2.0167 1.1335 2.0167 1.1335 4 2a2458.8396 2458.8396 0 0 1-5.375 7.4375l-1.539 2.1426c-.49.6735-.9798 1.347-1.4844 2.041l-1.3648 1.8884C403 98 403 98 401 99c-1.2344-2.6445-1.2344-2.6445-2-6 1.4844-2.8867 1.4844-2.8867 3.75-5.6875l2.2344-2.8242L407 82l2-3Z"/><path fill="#894F2C" d="M159 376c5.036.581 9.447 1.6597 14.25 3.375l3.6406 1.2734c2.7683 1.2033 4.3387 1.9521 6.1094 4.3516v2l-5-1-2.25-.375c-6.2573-1.4221-12.0952-3.5801-17.75-6.625l1-3Z"/><path fill="#92552D" d="M116 86c-8.9108 3.8548-8.9108 3.8548-13.75 4.5-3.388.2874-3.388.2874-6.25 2.5-3.4506 2.3004-5.941 2.4738-10 3l-2 1.625C82 99 82 99 78.25 98.6875L75 98v-2a1262.6889 1262.6889 0 0 1 27.25-8.375l2.741-.8325 2.5871-.7534 2.294-.6812c2.36-.397 3.8724-.0972 6.1279.6421Z"/><path fill="#804827" d="M115 86v2l2 2-1.7734.4805c-4.59 1.2474-9.177 2.5027-13.754 3.7968l-2.391.6731a1468.579 1468.579 0 0 0-4.71 1.3355C90.264 97.4404 86.233 98.3943 82 99c3.8338-3.4852 7.0407-4.6716 12-6l2.5-1.5625c3.146-1.809 5.9189-1.9436 9.5-2.4375 8.027-3 8.027-3 9-3Z"/><path fill="#8C4F27" d="M299 11c5.2312-.2154 9.4379.4763 14.4375 2l3.746 1.125L320 15l1 4c-5.6667.2979-10.0883-.6892-15.4375-2.5l-2.2168-.7227c-1.785-.5833-3.5658-1.179-5.3457-1.7773l1-3Z"/><path fill="#B1886C" d="m45 110 1 2h-2l-.875 2.375C42 117 42 117 40 119l3 2-4 3-2-1-1 2c-2.7366 2.4256-5.29 4.5813-8.4375 6.4375-3.5194 2.146-6.4907 4.827-9.5625 7.5625 1.5856-3.856 4.0651-6.3322 7-9.25l2.6875-2.7031C30 125 30 125 32 125l.754-1.746c1.4238-2.5756 3.0703-4.2741 5.1835-6.3165l2.0898-2.0352L42 113a791.9637 791.9637 0 0 0 3-3Z"/><path fill="#824822" d="M39 123c-1.3869 3.1196-3.0019 5.2586-5.4063 7.6719l-2.0039 2.0117L29.5 134.75l-2.0898 2.1133-2.004 1.996-1.834 1.8272C22 142 22 142 20 142c-.4375-2.0625-.4375-2.0625 0-5 3.3187-4.2843 7.2758-7.3893 12-10l2.6875-2.1875C37 123 37 123 39 123Z"/><path fill="#8A4E27" d="m19 138 2 4c-7.284 8.6857-7.284 8.6857-11 12H7c.4223-5.1195 1.7172-7.3184 5.4375-10.8125l2.4336-2.332C17 139 17 139 19 138Z"/><path fill="#90512B" d="M433 141c4.689 1.423 7.5161 4.157 10.8125 7.625l1.5215 1.5625c1.229 1.264 2.4485 2.5374 3.666 3.8125l-3 2c-3.8672-2.1225-6.744-4.5275-9.8125-7.6875l-2.3945-2.4492L432 144l1-3Z"/><path fill="#92552F" d="M410.7266 37.7383c2.1128.7076 4.1995 1.4475 6.2734 2.2617l-1 2c-6.5138 1.5396-11.8796.7395-18-2-1.793-1.6094-1.793-1.6094-3-3 4.4988-2.2494 11.0422-.5301 15.7266.7383Z"/><path fill="#83441F" d="M98 352c4.4156.4784 8.2164 1.6917 12.3125 3.375l3.1758 1.2734C116 358 116 358 117 361c-3.632 1.2107-5.0653.6278-8.6875-.4375-.9939-.2875-1.9877-.575-3.0117-.871L103 359v-2l-3-1c-1.6875-1.5625-1.6875-1.5625-3-3l1-1Z"/><path fill="#9B694C" d="m50 101 3 1c.6875 2.0625.6875 2.0625 1 4l-4 2 2 3-1.496 1.461-1.9415 1.914-1.9336 1.8984C44.9212 117.9172 44.9212 117.9172 44 120c-2.3216.4073-4.6569.7444-7 1l1.2773-1.461 1.6602-1.914 1.6523-1.8984c1.4798-1.683 1.4798-1.683 2.4102-3.7266h2l.3125-1.8125C47 108 47 108 48.5625 106.5c1.8988-1.635 1.8988-1.635 1.4375-5.5Z"/><path fill="#925730" d="M281 6c5.569.4799 10.6707 1.2992 16 3v4c-5.915-.4522-11.352-1.1583-17-3l1-4Z"/><path fill="#99684A" d="m241 31 1 2-1 2h2c-.5732 3.8693-2.3895 6.1522-5 9h-2l-1.4375 1.5C233 47 233 47 230 47c1.6792-3.8013 4.1146-6.9708 6.625-10.25l1.2734-1.6797c1.031-1.359 2.0659-2.715 3.1016-4.0703Z"/><path fill="#A67B5F" d="M56 34c-3.8252 2.3907-7.5967 2.5597-12 3l1 5c-3.8916 1.2972-6.8943 1.1303-11 1l-2-1v2l-4-2a480.0276 480.0276 0 0 1 3.8125-1.5l2.1445-.8438C36 39 36 39 39 39v-2c1.8939-.5074 3.7902-1.0056 5.6875-1.5l3.1992-.8438c2.8247-.5954 5.2417-.784 8.1133-.6562Z"/><path fill="#A97756" d="M344 21c5.5459.3574 10.2678.8058 15 4 .6563 2.1055.6563 2.1055 1 4-2.272-.2821-4.5426-.576-6.8125-.875l-3.832-.4922C346 27 346 27 343 25h5l1-2-5-1v-1Z"/><path fill="#C38658" d="M390 293h1l1 39h3c-.4142 4.8326-2.4641 6.8268-6 10l-1-4h3l1-3h-3l1-42Z"/><path fill="#A37051" d="M376 29c5.4361.5783 11.1182 1.4249 16 4 1.2617 2.1055 1.2617 2.1055 2 4-6.0018.2182-11.1923-.4943-17-2v-1l5-1v-1l-6-1v-2Z"/><path fill="#864B2A" d="M334 362c-3.75 3-3.75 3-6 3v2c-5.1604 1.5125-8.66 2.335-14 1 2.9212-3.3198 5.1663-4.7047 9.4375-5.8125l2.8086-.7695c2.902-.4405 4.9365-.1696 7.7539.582Z"/><path fill="#7F4624" d="M67 105c2.815.615 5.6266 1.2414 8.4375 1.875l2.4316.5273c2.0591.4692 4.0975 1.0274 6.1309 1.5977l1 2h-5l3 1v2c-6.1557-.931-11.6085-1.7942-17-5l2-2-1-2Z"/><path fill="#A57557" d="M45 170c1.418.4545 2.8343.9137 4.25 1.375l2.3906.7734c2.2257.8033 4.2687 1.7487 6.3594 2.8516h-6v2c-6.6773-.607-12.7013-2.7763-19-5 3.9174-1.17 6.9796-.6958 11 0l1-2Z"/><path fill="#8A4B24" d="M264 201c4.303.4781 6.3487 2.7207 9 6 .9659 2.6748 1.4756 5.1871 2 8-3.6679-1.5035-5.6891-3.6373-8.25-6.625l-2.1406-2.4766L263 204l1-3Z"/><path fill="#AE8262" d="M114 20c-2.6474 1.4606-3.8945 2-7 2v3l4 1c-6.4212 2.4809-6.4212 2.4809-10 1l-3-2c-3.1252-.167-3.1252-.167-6 0 3.3553-2.2369 6.5963-3.1674 10.4375-4.1875l2.0254-.5762C107.938 19.303 110.586 18.6292 114 20Z"/><path fill="#844923" d="M368 348v2c-5.7323 2.8529-10.5986 4.5344-17 5v-4c.6265-.205 1.253-.41 1.8984-.621l2.4766-.8165 2.461-.8086c4.063-1.4155 5.774-1.6128 10.164-.7539Z"/><path fill="#834724" d="M49 95c1.8125.1875 1.8125.1875 4 1a158.6228 158.6228 0 0 1 3 5l3 1c-1.4425 3.366-3.3326 5.5105-6 8l-4-2 2-1.3125L53 105v-3l-3-1-1-6Z"/><path fill="#8D4F2A" d="m313 129 3 1c-3.1359 3.1359-6.9928 4.4676-11.0625 6.125l-2.5977 1.0703C300 138 300 138 297 138l-1-3h3v-2l3.625-.3125c3.9588-.4694 6.826-1.8717 10.375-3.6875Z"/><path fill="#9B684A" d="M25 57c3.6703 3.277 5.6928 6.7152 8 11h-4l1 4c-3.5948-3.3285-6.2236-6.9897-9-11l1-2 3 2v-4Z"/><path fill="#B48C73" d="M39 38c-2.914 1.9427-5.858 3.464-9 5l2 1v-2l5 1c-3.4445 2.2963-5.9381 2.5402-10 3v-3l-1.8281.4727-2.4219.5898-2.3906.5977C17.896 45.015 16.344 44.7688 14 44a3086.6 3086.6 0 0 1 9.6602-2.9766c1.864-.5712 3.7271-1.146 5.5859-1.7343C32.5905 38.261 35.4997 37.7879 39 38Z"/><path fill="#864D28" d="M104 26c-3.278 2.1853-5.7363 2.7785-9.5625 3.625l-3.504.789C88 31 88 31 86 31l1-4h4v-2c4.845-1.514 8.2591-.366 13 1Z"/><path fill="#824322" d="M184 385c6.4189 1.7362 12.1378 3.8518 18 7l-4 2v-2l-3.6875.1875c-3.8945-.007-6.2617-.599-9.3125-3.1875-.629-2.1094-.629-2.1094-1-4Z"/><path fill="#99694B" d="M40 87h2v2l5-1c4 4.75 4 4.75 4 7h-2l1 6c-4.1768-3.6949-7.1196-8.2665-10-13v-1Z"/><path fill="#814722" d="M68 341c6.4014.4656 11.2677 2.1471 17 5l-1 2c-5.654.3462-9.03-.5657-14-3v-2l-2-2Z"/><path fill="#AE8063" d="M153 9v3l3 2-10 1-1-2-3 1c-1.3944.0667-2.7917.0854-4.1875.0625L134 14c3.0875-1.6748 6.1138-2.704 9.5-3.625l2.8438-.789C149 9 149 9 153 9Z"/><path fill="#8B4F29" d="M37 75c3.588 3.3887 6.4568 6.7614 9 11v2l-4 1v-2h-2l-1-6h-2c-.3822-1.6561-.714-3.3246-1-5l1-1Z"/><path fill="#844826" d="M422 42c1.4384.1146 2.8757.242 4.3125.375l2.4258.211C431 43 431 43 434 45l-1 5h-3v-2l-2.875-.1875L424 47c-1.375-2.5625-1.375-2.5625-2-5Z"/><path fill="#A57457" d="M123 18h-2l-1 2-2 1 1 2-13 3c1-4 1-4 2.875-5.25C111 20 111 20 114 20v-2c3.3782-.8445 5.6747-1.1084 9 0Z"/><path fill="#9E6847" d="M246 393v5h-2v2c-4.625 2.125-4.625 2.125-8 1l3-3-8 1c2.7005-1.8003 5.0668-2.9338 8.0625-4.125l2.6602-1.0703C244 393 244 393 246 393Z"/><path fill="#CE8E5A" d="M223 353h1v46l-5-1 3-1 1-44Z"/><path fill="#8E5838" d="M419 70c-.4147 5.288-1.3522 8.117-5 12l-4-1c.085-2.8904.583-4.5624 2.5898-6.668C417.6216 70 417.6216 70 419 70Z"/><path fill="#874D28" d="M264 2c5.93-.3785 10.4724.8942 16 3v1l-2.957.1836-3.8555.2539-3.832.246C266.0082 6.8719 266.0082 6.8719 263 8l1-6Z"/><path fill="#956043" d="M445 155h5c1.125 3.75 1.125 3.75 0 6-2.3461 1.5371-3.4456 2.0924-6.25 1.625L442 162l1-3-4-1 6-1v-2Z"/><path fill="#92552E" d="m162 73-5 2v2h-6v2l-7 1-2-3c2.5797-.8669 5.1628-1.7187 7.75-2.5625l2.211-.748 2.1484-.6934 1.9677-.6506c2.2573-.4056 3.7576-.0385 5.9229.6545Z"/><path fill="#976143" d="M431 51c-.0709 3.0745-.2475 6.0112-1 9-2.5625 2.0625-2.5625 2.0625-5 3v-2l-3-1a728.8768 728.8768 0 0 1 2.875-3.9375l1.6172-2.2148C428.816 51 428.816 51 431 51Z"/><path fill="#874A24" d="M120 359.6875c4.4119.4596 8.0444 2.382 12 4.3125v2c-2.9888.854-4.7176 1.077-7.75.25C122 365 122 365 121 362c-2.015-.7332-2.015-.7332-4-1 1-1 1-1 3-1.3125Z"/><path fill="#97592F" d="m77 181 11 3-4 1v3l4 1c-3.6164 1.2055-4.8098.3845-8.1484-1.164C77.3 186.684 74.666 185.8452 72 185l1.9375-.3125L76 184l1-3Z"/><path fill="#824924" d="M304 374c-3.4926 3.4926-7.55 4.921-12.4375 5.1875L289 379c.1875-1.875.1875-1.875 1-4 4.4354-2.9107 9.0425-1.7992 14-1Z"/><path fill="#A77659" d="m377 341 2 1-1 2 9-1c-3.2253 3.2253-7.544 4.7742-12.082 5.1914-1.6406-.0033-3.2806-.089-4.918-.1914v-3l3-1 1-2 3-1Z"/><path fill="#884A24" d="M150 207c4.4853.6564 8.6691 1.7007 13 3v4l-11-2v-2h-2v-3Z"/><path fill="#7D4625" d="M94 114c3.6594.689 7.2244 1.5682 10.8125 2.5625l2.957.8164L110 118c-3.5093 2.8865-5.4167 3.3985-10 3l-2-1v-4l-4-1v-1Z"/><path fill="#CDA992" d="M306 11c6.5953.579 12.6892 1.7973 19.0625 3.5625l2.623.709C329.792 15.8417 331.8962 16.42 334 17v1h-11l3 3-7-1 2-1-1-3c-2.3807-.8799-4.6148-1.5726-7.0625-2.1875l-2.0098-.5371C309.2881 12.8389 307.6444 12.418 306 12v-1Z"/><path fill="#814822" d="M7 159c4.548-.1784 7.8794.0021 12 2v3l2 1c-9.2188-.9375-9.2188-.9375-13-3l-1-3Z"/><path fill="#93552B" d="m214 169 2 6c-1.2148 1.8242-1.2148 1.8242-2.9375 3.6875l-1.7148 1.8867L210 182l-3-4 7-9Z"/><path fill="#A77A5F" d="M431 43c1.6661-.0427 3.3338-.0406 5 0l1 1c-.2487 6.2174-2.2515 9.2903-6 14-1.3005-2.601-1.5647-5.1396-2-8l4-1v-4l-2-2Z"/><path fill="#95562B" d="M344 21c2.875 1 2.875 1 5 2l-1 3c-2.439-.282-4.8757-.5752-7.3125-.875l-2.0918-.2383c-3.552-.4461-5.5654-.8665-8.5957-2.8867l2.875.0625c3.9683-.0794 6.9842-1.306 11.125-1.0625Z"/><path fill="#8C4C23" d="M340 195v2h-2l-2 3c-1.9453.5117-1.9453.5117-4.125.6875L328 201c2.4866-6.927 5.1923-6.1098 12-6Z"/><path fill="#A87D62" d="m19 162 5 1 1 3h2l1 2c2.0167 1.1335 2.0167 1.1335 4 2-2 1-2 1-5.2578.004a355.3018 355.3018 0 0 1-3.8672-1.4415l-1.996-.7363C19.25 167.2242 17.6246 166.613 16 166l3-2v-2Z"/><path fill="#844C29" d="m86 28-2 3h-4v2c-6.0547.1953-6.0547.1953-8 0l-2-2c10.3736-3.4442 10.3736-3.4442 16-3Z"/><path fill="#9E6C4A" d="M309 371v2l-4 1v2c-6.625 3.125-6.625 3.125-10 2l7-3-4-3c4.1217-1.6295 6.707-2.2626 11-1Z"/><path fill="#A97552" d="M420 165v3c3.0745-.7764 3.0745-.7764 5-3v3l2 1c-1.455.53-2.9142 1.0487-4.375 1.5625-1.2182.435-1.2182.435-2.461.879C418 172 418 172 416 171l-2-2c-2.0687-.6425-2.0687-.6425-4-1 6.625-3 6.625-3 10-3Z"/><path fill="#7C431F" d="M171 380c1.4401.2566 2.877.531 4.3125.8125l2.4258.457c2.525.8155 3.6424 1.65 5.2617 3.7305v2c-3.8131-.673-7.437-1.4614-11-3-.6719-2.0742-.6719-2.0742-1-4Z"/><path fill="#995930" d="M163 211c3.7189.5071 6.7345 1.116 10 3l-4 2 1 2a716.0591 716.0591 0 0 1-4.8125-1.375l-2.707-.7734C160 215 160 215 157 213h5l1-2Z"/><path fill="#E1D4C8" d="M156 379c6.6929.683 12.0798 2.9215 18 6v1h-11l-1-4c-2.9962-1.3046-2.9962-1.3046-6-2v-1Z"/><path fill="#814525" d="M416 169v3c-4.1774 1.5914-7.5316 2.2128-12 2 .5-1.875.5-1.875 2-4 3.3366-1.3502 6.676-2.662 10-1Z"/><path fill="#814725" d="M277 382c-.125 1.8125-.125 1.8125-1 4-3.6788 2.289-5.6155 3-10 3v-3h3l1-3c4.443-2.2785 4.443-2.2785 7-1Z"/><path fill="#93572E" d="M294 73c5.6502.601 10.6616 2.0753 16 4l-2 3c-4.0545.4313-5.5497.3002-9-2v-3l-5-1v-1Z"/><path fill="#AF7E5F" d="M358 24c2.4393.45 4.8761.9096 7.3125 1.375l2.0918.3828C370.837 26.4211 373.0525 27.035 376 29c-5.5268.194-9.7561-.252-15-2l1 3-7-1 4-1-1-4Z"/><path fill="#7E431F" d="M188 2c1 1 1 1 1 6l-10-2V3c2.9821-1.491 5.7161-1.1194 9-1Z"/><path fill="#B9927B" d="m181 383 3 1 .1875 2.375L185 389c2.4764 1.3747 2.4764 1.3747 5 2-4.0591 1.353-5.7715.1522-9.6875-1.4375l-3.5742-1.4336L174 387v-2l4-1 1 2c2.0246.6521 2.0246.6521 4 1l-2-4Z"/><path fill="#8C522D" d="m349 354 1 3c-3.7297 2.0344-5.669 3-10 3l1-5c2.9282-.976 4.9561-1.0823 8-1Z"/><path fill="#B08467" d="M392 33c1.9388.2826 3.876.5764 5.8125.875l3.2695.4922C404 35 404 35 407 37h-10l-1 2-7-1 4-2-1-3Z"/><path fill="#BB8E73" d="m374 344-4 3 4 2c-1.9323.8658-3.871 1.7173-5.8125 2.5625l-3.2695 1.4414C362 354 362 354 359 353l9-3v-2l-4-2c1.2879-.5301 2.5805-1.0488 3.875-1.5625.7193-.29 1.4386-.58 2.1797-.879C372 343 372 343 374 344Z"/><path fill="#8A4E2A" d="m93 349 3 2v3c-5.288-.4147-8.117-1.3522-12-5 3.1189-1.5595 5.655-.6455 9 0Z"/><path fill="#BC947C" d="m116 358 5 1-4 2-1-3Zm-9 2c1.5837.142 3.167.2888 4.75.4375l2.6719.246c2.2955.2818 4.3886.5736 6.5781 1.3165 1.25 2.0625 1.25 2.0625 2 4-3.7824-.657-7.2184-1.7201-10.8125-3.0625l-2.957-1.0977L107 361v-1Z"/><path fill="#9C6A4B" d="M109 356c3.4375.8125 3.4375.8125 7 2l1 3c-3.632 1.2107-5.0653.6278-8.6875-.4375-.9939-.2875-1.9877-.575-3.0117-.871L103 359l1.875-.375c2.3162-.497 2.3162-.497 4.125-2.625Z"/><path fill="#884925" d="M391 177c-.5625 1.9375-.5625 1.9375-2 4-6.1463 1.4268-6.1463 1.4268-9 0v-2c3.8299-1.8023 6.7812-2.1962 11-2Z"/><path fill="#8A4F27" d="M279 69c1.8906.3047 1.8906.3047 4.25.875l2.4492.5781L288 71c1.6653.3399 3.3313.677 5 1-6.1856 3.1994-6.1856 3.1994-10.0625 2.25C280 73 280 73 278 70l1-1Z"/><path fill="#814823" d="M19 51c3 0 3 0 4.6875 1.625C25.3216 55.582 25.2269 57.6718 25 61c-2.451-.9804-3.7676-1.6514-5.25-3.875C19 55 19 55 19 51Z"/><path fill="#804422" d="m201 394 11 1 1 3h5l1 2c-1.4384-.1146-2.8757-.242-4.3125-.375l-2.4258-.211C210 399 210 399 207 397c-1.988-.7016-3.987-1.3737-6-2v-1Z"/><path fill="#B89176" d="m352 353-1 2 2-1c1.9996-.04 4.0005-.0435 6 0-2.235 2.235-4.0241 3.0025-6.9375 4.1875l-2.6523 1.1055C347 360 347 360 344 359l6-2c-.9587-2.3308-.9587-2.3308-4-4 3-1 3-1 6 0Z"/><path fill="#8E512C" d="m271.4805 66.2422 2.707.6328 2.7305.6172L279 68c-2.316 2.669-2.7548 2.9737-6.5 3.375C269 71 269 71 267.0625 69.5L266 68c3-2 3-2 5.4805-1.7578Z"/><path fill="#AD8770" d="M189 1c1.9219 2.0664 1.9219 2.0664 3.75 4.5625l1.8594 2.504L196 10l-1 2c-2.468-1.1517-4.0478-2.0478-6-4-.625-2.625-.625-2.625-1-5l-7-1c3.09-1.876 4.613-2.3649 8-1Z"/><path fill="#AF876F" d="m95 351 4 1-1 1 3 2 2 3c-5.2775-.5385-9.2565-1.7734-14-4 2.0755-.5535 3.8437-1 6-1v-2Z"/><path fill="#B3896F" d="M85 346c1.6754.286 3.3439.6178 5 1l-4 2 3 4c-5.288-.4147-8.117-1.3522-12-5l3.4375-.4375c3.3703-.1742 3.3703-.1742 4.5625-1.5625Z"/><path fill="#824925" d="m239 398-1 3c-2.0664.9492-2.0664.9492-4.5625 1.6875l-2.504.7617L229 404l-1-4c3.8768-1.1929 6.9162-2 11-2Z"/><path fill="#AC8066" d="M290 376v2l5 1c-2.0382 2.0382-3.2942 2.6784-5.9375 3.6875l-2.0898.8242C285 384 285 384 282 383l4-1-1-3c2.75-3 2.75-3 5-3Z"/><path fill="#824622" d="m46 112 2 1c-1.2038 2.4936-2.4543 4.6814-4 7-3.625.6875-3.625.6875-7 1a591.6158 591.6158 0 0 1 2.8125-3.375l1.582-1.8984C43 114 43 114 46 112Z"/><path fill="#C5A692" d="M200 396c6.625-.25 6.625-.25 10 2l3 .9375c2.87 1.0165 4.1113 1.754 6 4.0625-4.2838-.7126-8.251-2.0692-12.3125-3.5625l-1.955-.709A1522.8378 1522.8378 0 0 1 200 397v-1Z"/><path fill="#B7927C" d="M270 390c-2.0995.8656-4.2048 1.7171-6.3125 2.5625l-3.5508 1.4414C257 395 257 395 254 394l2-1 1-3c1.6032-.1955 3.2076-.3811 4.8125-.5625l2.707-.3164C267 389 267 389 270 390Z"/><path fill="#84451F" d="M204 25c2.5625 2.1875 2.5625 2.1875 5 5-.1875 2.8125-.1875 2.8125-1 5-5.5714-5.1429-5.5714-5.1429-6-9l2-1Z"/><path fill="#995B30" d="M320 201c-2.3321 1.2063-4.4964 2.1655-7 3l-1 2 2 1-6 2 1-3-3-2c1.9551-.6966 3.9142-1.382 5.875-2.0625l3.3047-1.1602C318 200 318 200 320 201Z"/><path fill="#94552A" d="m330 198-2 3 2 1c-2.8125.6875-2.8125.6875-6 1-1.875-1.4375-1.875-1.4375-3-3 5-3.3333 5-3.3333 9-2Z"/><path fill="#814621" d="M163 9v2l-1.9375.4375c-2.038.3726-2.038.3726-3.0625 1.5625a143.9844 143.9844 0 0 1-6 0l1-4c6.625-1.125 6.625-1.125 10 0Z"/><path fill="#8B5029" d="M176 4v3l2 1c-4.9706.913-9.0294.913-14 0 3.6962-1.9903 7.743-4 12-4Z"/><path fill="#884C27" d="m442 148 7 6-3 2-5-3 1-5Z"/><path fill="#7B4523" d="M307 78h5v4l2 1c-4.9692-.514-9.2903-1.2338-14-3 2.4628-1.2314 4.2795-1.0716 7-1v-1Z"/><path fill="#824926" d="m215 58 1 2 3 1c-1.7677.5312-3.5393 1.0496-5.3125 1.5625-.9861.29-1.9723.58-2.9883.879C208 64 208 64 205 63l2-1v-3c2.1687.506 3.9997.9998 6 2v-2l2-1Z"/><path fill="#92613F" d="m334.0586 18.7344 2.3789.0156 2.371-.0156C341 19 341 19 344 21c-1.5793.3918-3.1637.7628-4.75 1.125l-2.6719.6328c-2.9069.273-4.1447-.2227-6.5781-1.7578 2-2 2-2 4.0586-2.2656Z"/><path fill="#9A684C" d="M59 332c.625 2.0625.625 2.0625 1 4h-2v2l-4-1-1-5c3.75-1.125 3.75-1.125 6 0Z"/><path fill="#E7C8B6" d="M396 178h2l-1 3c-.1489 1.8447-.248 3.6936-.3164 5.543l-.127 3.252-.1191 3.3925-.1309 3.4277A3055.2706 3055.2706 0 0 0 396 205h-1c-.0289-4.3125-.0468-8.625-.0625-12.9375l-.0254-3.7324-.0098-3.545-.0158-3.2849C395 179 395 179 396 178Z"/><path fill="#8B4B23" d="M358 190c-2 3-2 3-3.9453 3.5117l-2.1797.1758L348 194v-3c3.5782-2.3396 5.9222-1.9268 10-1Z"/><path fill="#A57558" d="M405 171v2l11-1c-2.8025 1.8683-4.3055 2.4542-7.5 3.125l-2.3438.5078C404 176 404 176 401 176l-1-4c2-1 2-1 5-1Z"/><path fill="#794626" d="m285 138-4 2v3h-12c2.8612-1.9075 5.3525-3.0035 8.5625-4.1875l2.9414-1.1055C283 137 283 137 285 138Z"/><path fill="#914E28" d="M415 123c1.1783.9017 2.3423 1.822 3.5 2.75l1.9688 1.5469C422 129 422 129 422 133a707.3815 707.3815 0 0 1-3.4375-2.875l-1.9336-1.6172C415 127 415 127 414 125l1-2Z"/><path fill="#8B4B26" d="m402 108 6 5-3 4-5-6h2v-3Z"/><path fill="#894924" d="m237 42 1 3c-1.1445 2.043-1.1445 2.043-2.8125 4.1875l-1.6445 2.168L232 53h-2c.1403-3.0166.2935-5.2384 2.4023-7.5117C233.889 44.2674 235.4413 43.1275 237 42Z"/><path fill="#7F4622" d="M281 6c1.4588.141 2.917.288 4.375.4375l2.461.246C290 7 290 7 292 8l-1 3h-2V9l-2.25.5625c-2.7.4295-4.1963.2887-6.75-.5625l1-3Z"/><path fill="#834A23" d="M147 370c1.375 2.5625 1.375 2.5625 2 5-1.482-.449-2.9606-.9096-4.4375-1.375l-2.496-.7734C140 372 140 372 139 370c2.9888-1.4944 4.85-.9187 8 0Z"/><path fill="#AE7F64" d="m390 331 3 2 2-1c-.4142 4.8326-2.4641 6.8268-6 10l-1-4h3l1-3h-3l1-4Z"/><path fill="#864823" d="m176 215 1 4c-6.523-.6154-6.523-.6154-8.9375-2.5625L167 215c3.4782-1.1594 5.459-.7082 9 0Z"/><path fill="#91522B" d="M39 123c-1.3819 3.2104-2.9242 5.0494-5.625 7.25l-1.914 1.5781L30 133c.1524-2.6671.4936-4.4506 2.332-6.4453C36.5063 123 36.5063 123 39 123Z"/><path fill="#CEB19C" d="m45 110 1 2h-2l-.5 2.0625c-2.3944 4.689-6.7718 8.5734-11.5 10.9375 1.4538-3.3672 3.3096-5.5227 5.9375-8.0625l2.0898-2.0352L42 113a791.9637 791.9637 0 0 0 3-3Z"/><path fill="#8C512A" d="M108 119c3.8266 1.3154 4.0553 2.1106 6 6l-12-3 6-3Z"/><path fill="#7D421F" d="M218 44c4.875 3.625 4.875 3.625 6 7l-2 3c-2-1.625-2-1.625-4-4-.25-3.25-.25-3.25 0-6Z"/><path fill="#884D2B" d="M350 24c6.0547-.1953 6.0547-.1953 8 0l2 2-1 3c-1.3157-.2548-2.6276-.5293-3.9375-.8125l-2.2148-.457L351 27l-1-3Z"/><path fill="#844823" d="M198 17c4.875 3.625 4.875 3.625 6 7l-4 1c-1.5625-1.75-1.5625-1.75-3-4 .3125-2.25.3125-2.25 1-4Z"/><path fill="#A6795E" d="m132 365 3 1v3c-7.3846.3692-7.3846.3692-10.5-1.5L123 366l3.375.0625c3.4572.2013 3.4572.2013 5.625-1.0625Z"/><path fill="#894F2C" d="M368 348v2l-8 3v-5c2.8618-1.4309 4.9338-.6 8 0Z"/><path fill="#CE8A55" d="m201 191 1 3-10 11-1-3c1.0742-1.6836 1.0742-1.6836 2.6875-3.4375l1.6758-1.8438c1.8476-1.9402 3.7053-3.8616 5.6367-5.7187Z"/><path fill="#A7795A" d="m241 31 1 2-1 2h2l-1 4h-6c1.3715-2.9541 2.9886-5.44 5-8Z"/><path fill="#80421D" d="M138 16v2c-8.5714 1.4286-8.5714 1.4286-12-1 4.4123-1.4708 7.4828-2.3688 12-1Z"/><path fill="#7E4725" d="M257 393c-5.625 3-5.625 3-9 3v-4c3.779-1.0497 5.6492-1.1098 9 1Z"/><path fill="#A87A5F" d="m58 336 3 1-1 2 4 1 1 4c-4.3554-1.1614-6.6462-2.077-9-6h2v-2Z"/><path fill="#CA8653" d="m57 180 10 2c-3.3124.8281-5.6598 1.0928-9 1v9h-1v-12Z"/><path fill="#7F4726" d="m269 144-3 1c-1.2088 2.0002-1.2088 2.0002-2 4-2.3125.1875-2.3125.1875-5 0-1.668-1.5117-1.668-1.5117-3-3 1.4118-.534 2.8297-1.0517 4.25-1.5625.789-.29 1.5778-.58 2.3906-.879 2.5504-.6037 3.9126-.4059 6.3594.4415Z"/><path fill="#AA8469" d="m17 139 1 2c-1.8758 4.0642-3.9358 6.1242-8 8l-2-1 9-9Z"/><path fill="#A3755A" d="m409 79 1 2c2.0167 1.1335 2.0167 1.1335 4 2l-5 7c-1.6265-3.253-1.1145-6.3923-1-10l1-1Z"/><path fill="#97572E" d="m221 53 1 3h-3v2l-6 1v2c-3-1-3-1-5-3a894.5333 894.5333 0 0 1 4.8125-1.5l2.707-.8438C218 55 218 55 221 55v-2Z"/><path fill="#AD8976" d="m13 45 1 3 3 1v2h2l2 8c-3.2594-3.0266-5.7559-6.153-8-10v-4Z"/><path fill="#95532C" d="M87 27c4.1614-.0816 7.9472.0175 12 1v1l-13 2 1-4Z"/><path fill="#955A38" d="M388 335h4c-.375 1.9375-.375 1.9375-1 4l-2 1v3c-2.5108-1.2554-2.8713-2.5006-4-5h2l1-3Z"/><path fill="#7F472B" d="M394 178h1c.0995 6.1109.0713 11.974-1 18h-1c-1.2029-6.4955-.5844-11.6099 1-18Z"/><path fill="#935329" d="m380 98 2.1875.4375L385 99l5 1c-3.402 2.0935-6.0527 2.1794-10 2v-4Z"/><path fill="#82431B" d="M405 37v3c-6.523.3692-6.523.3692-8.9375-1.5L395 37c3.283-1.6415 6.4255-.5189 10 0Z"/><path fill="#A97D5F" d="M181 3h-2v3l4 1h-7V4l-6 1c4.0124-2.675 6.3658-3.4896 11-2Z"/><path fill="#7F4927" d="M76.375 96.75C79 97 79 97 82 100l-10 2c1.2297-4.919 1.2297-4.919 4.375-5.25Z"/><path fill="#8D4D24" d="m184 385 10 3v1c-3.3125.6875-3.3125.6875-7 1-1.9375-1.3125-1.9375-1.3125-3-3v-2Z"/><path fill="#AD7B5A" d="m311 367 2 1-2 3v3l-6 1 4-2-3-4c2.375-1.0625 2.375-1.0625 5-2Z"/><path fill="#7E4320" d="M42.125 169.25 45 170l1 2c-5.4154 1.2308-5.4154 1.2308-8.375.0625L36 171c3-2 3-2 6.125-1.75Z"/><path fill="#804823" d="M304 12c5.4154-.3692 5.4154-.3692 8.375 1.5L314 15c-2.8125.625-2.8125.625-6 1-3-2-3-2-4-4Z"/><path fill="#95552D" d="m254 187 6 5-1 2-2-1-3 1-2-3 2-2v-2Z"/><path fill="#D68E5C" d="m229 166 4 4-2 6-2-1v-9Z"/><path fill="#7D4827" d="M124 84c2.0072.2867 4.0086.6187 6 1-2.4213 2.4213-3.8011 2.5284-7.125 3.125l-2.7578.5078L118 89l1-3c2-.625 2-.625 4-1l1-1Z"/><path fill="#946143" d="m263 3 1 2-1 3 2 1-1.875.375c-2.3162.497-2.3162.497-4.125 2.625l-2-1c1.2314-3.6942 3.208-5.3511 6-8Z"/><path fill="#AF876E" d="M246 393h2v3l6-1c-3.2034 2.8337-5.7809 3.5206-10 4l2-1-1-3 1-2Z"/><path fill="#7D4321" d="m11 147 2 1c-.75 2.4375-.75 2.4375-2 5-2.125.8125-2.125.8125-4 1 .3125-2.375.3125-2.375 1-5l3-2Z"/><path fill="#90542D" d="M407 82h2l-1 9-3-3c.2818-2.3249.9545-3.909 2-6Z"/><path fill="#AC8269" d="m424 61 3 1c-1.3122 3.9367-2.9191 6.2272-6 9v-6l2-1 1-3Z"/><path fill="#7F431F" d="M40 40c-1.1875 1.5625-1.1875 1.5625-3 3-2.6875-.3125-2.6875-.3125-5-1v2l-4-2c4.1774-1.5914 7.5316-2.2128 12-2Z"/><path fill="#CBAB98" d="M250 19c0 3.936-1.5802 4.9936-4 8-.7783 2.1821-.7783 2.1821-1 4h-3c1.5091-4.9801 4.5566-8.2426 8-12Z"/><path fill="#8B4A26" d="M52 175h8c-.8125 1.9375-.8125 1.9375-2 4l-3 1c-1.5-1.375-1.5-1.375-3-3v-2Z"/><path fill="#997056" d="M35 76c2 2 2 2 2 5h2l1 5c-4.875-4.625-4.875-4.625-6-8l1-2Z"/><path fill="#814522" d="M431 51v5l-5 2c.3125-2.375.3125-2.375 1-5 3-2 3-2 4-2Z"/><path fill="#9E5D36" d="M424 46h10l-1 4h-3v-2l-6-1v-1Z"/><path fill="#A98167" d="M431 43c1.6661-.0427 3.3338-.0406 5 0 1 1 1 1 1.0625 3.5625L437 49l-3 1-.375-2.375c-.4162-2.7656-.4162-2.7656-2.625-4.625Z"/><path fill="#7E431D" d="M264 2h5l-1 3h-2l-1 3h-2l1-6Z"/><path fill="#C3A48F" d="M190 392h8l2 4c-3.5578-.61-6.6829-1.5784-10-3v-1Z"/><path fill="#8B4F29" d="M175 381c5.6615 1.477 5.6615 1.477 7.375 4.125L183 387l-5-1v-2c-1.4583-1.6251-1.4583-1.6251-3-3Z"/><path fill="#864822" d="M305 205h5l-2 4h-5l2-4Z"/><path fill="#975831" d="M189 198c.9812 3.0526.9812 4.9474 0 8l-4-2c1.1517-2.468 2.0478-4.0478 4-6Z"/><path fill="#83451D" d="m113 22 1 2-8 2 1-4c3-1 3-1 6 0Z"/><path fill="#8D522B" d="m275 381 2 1-1 4-4 1v-2l-2-2c2.375-1.0625 2.375-1.0625 5-2Z"/><path fill="#AE8167" d="m157 374 4 2c-1.0625 1.5625-1.0625 1.5625-3 3-3.6875-.3125-3.6875-.3125-7-1v-1l2.4375-.375L156 376l1-2Z"/><path fill="#945229" d="M76 343c3.3437.5573 6.0331 1.3517 9 3l-1 2c-2.7163-.9054-5.3477-1.9247-8-3v-2Z"/><path fill="#96562E" d="m201 184 1 2-1.4375 2.375c-1.9035 2.6887-1.9035 2.6887-1.5625 6.625l-3-4 5-7Z"/><path fill="#864926" d="M401 173v4h-6l-1-2c2.6474-1.4606 3.8945-2 7-2Z"/><path fill="#854925" d="M186 143v3c-1.75.6875-1.75.6875-4 1-2.25-1.4375-2.25-1.4375-4-3 2.9282-.976 4.9561-1.0823 8-1Z"/><path fill="#804420" d="m37 75 3 2c.1875 3.625.1875 3.625 0 7l-1-3h-2c-.3822-1.6561-.714-3.3246-1-5l1-1Z"/><path fill="#93552F" d="m201 62-1 2 2 1h-6v-2l-3-1c3.287-.7995 4.7102-1.0966 8 0Z"/><path fill="#81461F" d="M44 37h5l1 3-5 1-1-4Z"/><path fill="#7E411D" d="M378.9375 30.8125C382 31 382 31 384 33c-3.375.625-3.375.625-7 1l-2-2c1-1 1-1 3.9375-1.1875Z"/><path fill="#793F1A" d="M340.8125 20.75c3.1506.2471 5.3467.9131 8.1875 2.25l-1 3-2.0625-1.5c-3.5322-1.8037-6.0239-1.7302-9.9375-1.5 2-2 2-2 4.8125-2.25Z"/><path fill="#894F2A" d="M290 375h3v2l4 1c-2.7088 1.3544-5.0093 1.065-8 1l1-4Z"/><path fill="#7D4221" d="M382.1875 341.375 385 342l-1 2c-2.9375.75-2.9375.75-6 1l-2-2c3-2 3-2 6.1875-1.625Z"/><path fill="#8C4B25" d="m186 204 2 1c-1.3698 3.1612-1.989 3.9927-5 6l-1-3 4-4Z"/><path fill="#884823" d="M128 200h5l1 4-5-1-1-3Z"/><path fill="#D08A57" d="M233 170c2.6475 2.5778 4.9443 4.9165 7 8-3 0-3 0-5-1-1.5755-2.6258-2-3.871-2-7Z"/><path fill="#83451F" d="M438 159c2.625-.1875 2.625-.1875 5 0v3h-7l2-3Z"/><path fill="#91532C" d="M256 147c2.375-.1875 2.375-.1875 5 0l2 3c-2.875.625-2.875.625-6 1l-2-2 1-2Z"/><path fill="#7C401D" d="M396 102h2v4l2 1-8-1 4-2v-2Z"/><path fill="#784524" d="M376 98h-2l1 3-9-2v-1c3.663-.7493 6.4236-1.238 10 0Z"/><path fill="#864821" d="M417 40c-1 2-1 2-2.875 2.6875C412 43 412 43 409 42v-2c2.8618-1.4309 4.9338-.6 8 0Z"/><path fill="#CAAB99" d="m134 14-1 2c-3.4733 1.1578-6.3607 1.0687-10 1 3.884-2.5894 6.4275-3.1236 11-3Z"/><path fill="#854A25" d="m181 2 3 1v2l2 1h-7V3l2-1Z"/><path fill="#874B25" d="M112 358h4l1 3c-3 1-3 1-5.1875.0625L110 360l2-2Z"/><path fill="#7D441F" d="m346 354 4 1v2l-6 1 2-4Z"/><path fill="#7E4723" d="M187 144c3.6742.3062 4.7814.7577 7.3125 3.5625L196 150l-6-1-1-3-2-2Z"/><path fill="#79411D" d="M426 133c2.8844 1.293 4.8722 2.6594 7 5l-1 2-1.25-1.375c-1.814-1.6845-3.5029-2.6177-5.75-3.625l1-2Z"/><path fill="#63371B" d="M376 101c5.75 1.75 5.75 1.75 8 4l-6 1-2-5Z"/><path fill="#83451D" d="M386 34h7l1 3h-6v-2l-2-1Z"/><path fill="#804523" d="M80 28h6l-2 3-5-1 1-2Zm-2 3 2 1Z"/><path fill="#BF9F8B" d="m365 26 3.8125.375 2.1445.211C373 27 373 27 376 29c-7.5077.3692-7.5077.3692-10-1.5l-1-1.5Z"/><path fill="#844823" d="m263 9-2 5h-4c.3125-1.9375.3125-1.9375 1-4 3-1 3-1 5-1Z"/><path fill="#95542B" d="m239 173 5 1-2 1-1 3-3-2 1-3Z"/><path fill="#7F4621" d="m33 71 4 2-2 5c-1.5625-1.8125-1.5625-1.8125-3-4l1-3Z"/><path fill="#834A26" d="M196 63v2l4 1-6 1v-2l-3-1c2-1 2-1 5-1Z"/><path fill="#D49464" d="m20 47 5 1-2 5c-1.5-1.3125-1.5-1.3125-3-3v-3Z"/></svg>